G04*
G04 #@! TF.GenerationSoftware,Altium Limited,Altium Designer,21.9.2 (33)*
G04*
G04 Layer_Physical_Order=2*
G04 Layer_Color=16711680*
%FSLAX44Y44*%
%MOMM*%
G71*
G04*
G04 #@! TF.SameCoordinates,1F5C1B73-E678-4566-9102-B3B9492829AA*
G04*
G04*
G04 #@! TF.FilePolarity,Positive*
G04*
G01*
G75*
%ADD10C,0.5000*%
%ADD12C,0.2500*%
%ADD73C,4.5000*%
G04:AMPARAMS|DCode=74|XSize=1.59mm|YSize=1.59mm|CornerRadius=0.3975mm|HoleSize=0mm|Usage=FLASHONLY|Rotation=270.000|XOffset=0mm|YOffset=0mm|HoleType=Round|Shape=RoundedRectangle|*
%AMROUNDEDRECTD74*
21,1,1.5900,0.7950,0,0,270.0*
21,1,0.7950,1.5900,0,0,270.0*
1,1,0.7950,-0.3975,-0.3975*
1,1,0.7950,-0.3975,0.3975*
1,1,0.7950,0.3975,0.3975*
1,1,0.7950,0.3975,-0.3975*
%
%ADD74ROUNDEDRECTD74*%
%ADD75C,1.5900*%
G04:AMPARAMS|DCode=76|XSize=1.65mm|YSize=1.65mm|CornerRadius=0.4125mm|HoleSize=0mm|Usage=FLASHONLY|Rotation=0.000|XOffset=0mm|YOffset=0mm|HoleType=Round|Shape=RoundedRectangle|*
%AMROUNDEDRECTD76*
21,1,1.6500,0.8250,0,0,0.0*
21,1,0.8250,1.6500,0,0,0.0*
1,1,0.8250,0.4125,-0.4125*
1,1,0.8250,-0.4125,-0.4125*
1,1,0.8250,-0.4125,0.4125*
1,1,0.8250,0.4125,0.4125*
%
%ADD76ROUNDEDRECTD76*%
%ADD77C,1.6500*%
G04:AMPARAMS|DCode=78|XSize=1.45mm|YSize=1.45mm|CornerRadius=0.3625mm|HoleSize=0mm|Usage=FLASHONLY|Rotation=180.000|XOffset=0mm|YOffset=0mm|HoleType=Round|Shape=RoundedRectangle|*
%AMROUNDEDRECTD78*
21,1,1.4500,0.7250,0,0,180.0*
21,1,0.7250,1.4500,0,0,180.0*
1,1,0.7250,-0.3625,0.3625*
1,1,0.7250,0.3625,0.3625*
1,1,0.7250,0.3625,-0.3625*
1,1,0.7250,-0.3625,-0.3625*
%
%ADD78ROUNDEDRECTD78*%
G04:AMPARAMS|DCode=79|XSize=1.2mm|YSize=1.9mm|CornerRadius=0.3mm|HoleSize=0mm|Usage=FLASHONLY|Rotation=180.000|XOffset=0mm|YOffset=0mm|HoleType=Round|Shape=RoundedRectangle|*
%AMROUNDEDRECTD79*
21,1,1.2000,1.3000,0,0,180.0*
21,1,0.6000,1.9000,0,0,180.0*
1,1,0.6000,-0.3000,0.6500*
1,1,0.6000,0.3000,0.6500*
1,1,0.6000,0.3000,-0.6500*
1,1,0.6000,-0.3000,-0.6500*
%
%ADD79ROUNDEDRECTD79*%
G04:AMPARAMS|DCode=80|XSize=1.65mm|YSize=1.65mm|CornerRadius=0.4125mm|HoleSize=0mm|Usage=FLASHONLY|Rotation=90.000|XOffset=0mm|YOffset=0mm|HoleType=Round|Shape=RoundedRectangle|*
%AMROUNDEDRECTD80*
21,1,1.6500,0.8250,0,0,90.0*
21,1,0.8250,1.6500,0,0,90.0*
1,1,0.8250,0.4125,0.4125*
1,1,0.8250,0.4125,-0.4125*
1,1,0.8250,-0.4125,-0.4125*
1,1,0.8250,-0.4125,0.4125*
%
%ADD80ROUNDEDRECTD80*%
%ADD81C,0.8000*%
%ADD82C,0.5000*%
%ADD83C,0.6000*%
G36*
X358632Y26972D02*
X360898Y26034D01*
X362937Y24671D01*
X364671Y22937D01*
X366034Y20898D01*
X366973Y18632D01*
X367451Y16226D01*
Y15000D01*
Y-195000D01*
X367500Y-195246D01*
Y-195980D01*
X366973Y-198632D01*
X366034Y-200898D01*
X364671Y-202937D01*
X362937Y-204671D01*
X360898Y-206034D01*
X358632Y-206973D01*
X356226Y-207451D01*
X355000D01*
X292000Y-207451D01*
X291938Y-207463D01*
X291875Y-207454D01*
X290405Y-207526D01*
X290221Y-207572D01*
X290032D01*
X287148Y-208146D01*
X286917Y-208242D01*
X286670Y-208291D01*
X283954Y-209416D01*
X283745Y-209556D01*
X283513Y-209652D01*
X281068Y-211285D01*
X280890Y-211463D01*
X280682Y-211602D01*
X278602Y-213682D01*
X278463Y-213890D01*
X278285Y-214068D01*
X276652Y-216513D01*
X276556Y-216745D01*
X276416Y-216954D01*
X275291Y-219670D01*
X275242Y-219916D01*
X275146Y-220148D01*
X274572Y-223032D01*
Y-223221D01*
X274526Y-223405D01*
X274454Y-224875D01*
X274463Y-224938D01*
X274451Y-225000D01*
Y-365000D01*
Y-366226D01*
X273972Y-368632D01*
X273034Y-370898D01*
X271671Y-372937D01*
X269937Y-374671D01*
X267898Y-376034D01*
X265632Y-376973D01*
X263226Y-377451D01*
X-16226D01*
X-18632Y-376973D01*
X-20898Y-376034D01*
X-22937Y-374671D01*
X-24671Y-372937D01*
X-26034Y-370898D01*
X-26972Y-368632D01*
X-27451Y-366226D01*
Y-365000D01*
Y15000D01*
Y16226D01*
X-26972Y18632D01*
X-26034Y20898D01*
X-24671Y22937D01*
X-22937Y24671D01*
X-20898Y26034D01*
X-18632Y26972D01*
X-16226Y27451D01*
X356226D01*
X358632Y26972D01*
D02*
G37*
%LPC*%
G36*
X228750Y18108D02*
X227000D01*
Y7250D01*
X234358D01*
Y12500D01*
X233931Y14646D01*
X232715Y16465D01*
X230896Y17681D01*
X228750Y18108D01*
D02*
G37*
G36*
X224500D02*
X222750D01*
X220604Y17681D01*
X218785Y16465D01*
X217569Y14646D01*
X217142Y12500D01*
Y7250D01*
X224500D01*
Y18108D01*
D02*
G37*
G36*
X158750D02*
X157000D01*
Y7250D01*
X164358D01*
Y12500D01*
X163931Y14646D01*
X162715Y16465D01*
X160896Y17681D01*
X158750Y18108D01*
D02*
G37*
G36*
X154500D02*
X152750D01*
X150604Y17681D01*
X148785Y16465D01*
X147569Y14646D01*
X147142Y12500D01*
Y7250D01*
X154500D01*
Y18108D01*
D02*
G37*
G36*
X234358Y4750D02*
X227000D01*
Y-6108D01*
X228750D01*
X230896Y-5681D01*
X232715Y-4465D01*
X233931Y-2646D01*
X234358Y-500D01*
Y4750D01*
D02*
G37*
G36*
X224500D02*
X217142D01*
Y-500D01*
X217569Y-2646D01*
X218785Y-4465D01*
X220604Y-5681D01*
X222750Y-6108D01*
X224500D01*
Y4750D01*
D02*
G37*
G36*
X164358Y4750D02*
X157000D01*
Y-6108D01*
X158750D01*
X160896Y-5681D01*
X162715Y-4465D01*
X163931Y-2646D01*
X164358Y-500D01*
Y4750D01*
D02*
G37*
G36*
X154500D02*
X147142D01*
Y-500D01*
X147569Y-2646D01*
X148785Y-4465D01*
X150604Y-5681D01*
X152750Y-6108D01*
X154500D01*
Y4750D01*
D02*
G37*
G36*
X169375Y-11130D02*
X167000D01*
Y-19750D01*
X175620D01*
Y-17375D01*
X175145Y-14985D01*
X173791Y-12959D01*
X171765Y-11605D01*
X169375Y-11130D01*
D02*
G37*
G36*
X164500D02*
X162125D01*
X159735Y-11605D01*
X157709Y-12959D01*
X156355Y-14985D01*
X155880Y-17375D01*
Y-19750D01*
X164500D01*
Y-11130D01*
D02*
G37*
G36*
X219375Y-11130D02*
X217000D01*
Y-19751D01*
X225620D01*
Y-17375D01*
X225145Y-14985D01*
X223791Y-12959D01*
X221765Y-11605D01*
X219375Y-11130D01*
D02*
G37*
G36*
X214500D02*
X212125D01*
X209735Y-11605D01*
X207709Y-12959D01*
X206355Y-14985D01*
X205880Y-17375D01*
Y-19751D01*
X214500D01*
Y-11130D01*
D02*
G37*
G36*
X225620Y-22251D02*
X217000D01*
Y-30870D01*
X219375D01*
X221765Y-30395D01*
X223791Y-29041D01*
X225145Y-27015D01*
X225620Y-24625D01*
Y-22251D01*
D02*
G37*
G36*
X214500D02*
X205880D01*
Y-24625D01*
X206355Y-27015D01*
X207709Y-29041D01*
X209735Y-30395D01*
X212125Y-30870D01*
X214500D01*
Y-22251D01*
D02*
G37*
G36*
X175620Y-22250D02*
X167000D01*
Y-30870D01*
X169375D01*
X171765Y-30395D01*
X173791Y-29041D01*
X175145Y-27015D01*
X175620Y-24625D01*
Y-22250D01*
D02*
G37*
G36*
X164500D02*
X155880D01*
Y-24625D01*
X156355Y-27015D01*
X157709Y-29041D01*
X159735Y-30395D01*
X162125Y-30870D01*
X164500D01*
Y-22250D01*
D02*
G37*
G36*
X129650Y-48322D02*
Y-57750D01*
X139078D01*
X138873Y-56194D01*
X137790Y-53579D01*
X136067Y-51333D01*
X133821Y-49610D01*
X131206Y-48527D01*
X129650Y-48322D01*
D02*
G37*
G36*
X127150D02*
X125594Y-48527D01*
X122979Y-49610D01*
X120733Y-51333D01*
X119010Y-53579D01*
X117927Y-56194D01*
X117722Y-57750D01*
X127150D01*
Y-48322D01*
D02*
G37*
G36*
X336000Y-49072D02*
Y-58500D01*
X345428D01*
X345223Y-56944D01*
X344140Y-54329D01*
X342417Y-52083D01*
X340171Y-50360D01*
X337556Y-49277D01*
X336000Y-49072D01*
D02*
G37*
G36*
X333500Y-49072D02*
X331944Y-49277D01*
X329329Y-50360D01*
X327083Y-52083D01*
X325360Y-54329D01*
X324277Y-56944D01*
X324072Y-58500D01*
X333500D01*
Y-49072D01*
D02*
G37*
G36*
X77600Y-48662D02*
X74924Y-49014D01*
X72431Y-50047D01*
X70290Y-51690D01*
X68647Y-53831D01*
X67614Y-56324D01*
X67262Y-59000D01*
X67614Y-61676D01*
X68647Y-64169D01*
X70290Y-66310D01*
X72431Y-67953D01*
X74924Y-68986D01*
X77600Y-69338D01*
X80276Y-68986D01*
X82769Y-67953D01*
X84910Y-66310D01*
X86553Y-64169D01*
X87586Y-61676D01*
X87938Y-59000D01*
X87586Y-56324D01*
X86553Y-53831D01*
X84910Y-51690D01*
X82769Y-50047D01*
X80276Y-49014D01*
X77600Y-48662D01*
D02*
G37*
G36*
X56325Y-48630D02*
X48075D01*
X45685Y-49105D01*
X43659Y-50459D01*
X42305Y-52485D01*
X41830Y-54875D01*
Y-63125D01*
X42305Y-65515D01*
X43659Y-67541D01*
X45685Y-68895D01*
X48075Y-69370D01*
X56325D01*
X58715Y-68895D01*
X60741Y-67541D01*
X62095Y-65515D01*
X62570Y-63125D01*
Y-54875D01*
X62095Y-52485D01*
X60741Y-50459D01*
X58715Y-49105D01*
X56325Y-48630D01*
D02*
G37*
G36*
X139078Y-60250D02*
X129650D01*
Y-69678D01*
X131206Y-69473D01*
X133821Y-68390D01*
X136067Y-66667D01*
X137790Y-64421D01*
X138873Y-61806D01*
X139078Y-60250D01*
D02*
G37*
G36*
X127150D02*
X117722D01*
X117927Y-61806D01*
X119010Y-64421D01*
X120733Y-66667D01*
X122979Y-68390D01*
X125594Y-69473D01*
X127150Y-69678D01*
Y-60250D01*
D02*
G37*
G36*
X345428Y-61000D02*
X336000D01*
Y-70428D01*
X337556Y-70223D01*
X340171Y-69140D01*
X342417Y-67417D01*
X344140Y-65171D01*
X345223Y-62556D01*
X345428Y-61000D01*
D02*
G37*
G36*
X333500D02*
X324072D01*
X324277Y-62556D01*
X325360Y-65171D01*
X327083Y-67417D01*
X329329Y-69140D01*
X331944Y-70223D01*
X333500Y-70428D01*
Y-61000D01*
D02*
G37*
G36*
X338875Y-74780D02*
X330625D01*
X328235Y-75255D01*
X326209Y-76609D01*
X324855Y-78635D01*
X324380Y-81025D01*
Y-89275D01*
X324855Y-91665D01*
X326209Y-93691D01*
X328235Y-95045D01*
X330625Y-95520D01*
X338875D01*
X341265Y-95045D01*
X343291Y-93691D01*
X344645Y-91665D01*
X345120Y-89275D01*
Y-81025D01*
X344645Y-78635D01*
X343291Y-76609D01*
X341265Y-75255D01*
X338875Y-74780D01*
D02*
G37*
G36*
X17125Y-48630D02*
X8875D01*
X6485Y-49105D01*
X4459Y-50459D01*
X3105Y-52485D01*
X2630Y-54875D01*
Y-63125D01*
X3105Y-65515D01*
X4459Y-67541D01*
X6485Y-68895D01*
X8875Y-69370D01*
X17125D01*
X18425Y-69111D01*
X44827Y-95513D01*
X44341Y-96686D01*
X39012D01*
X20282Y-77957D01*
X19207Y-77239D01*
X17939Y-76986D01*
X10273D01*
X-3182Y-63531D01*
X-2414Y-61676D01*
X-2062Y-59000D01*
X-2414Y-56324D01*
X-3447Y-53831D01*
X-5090Y-51690D01*
X-7231Y-50047D01*
X-9724Y-49014D01*
X-12400Y-48661D01*
X-15076Y-49014D01*
X-17569Y-50047D01*
X-19710Y-51690D01*
X-21353Y-53831D01*
X-22386Y-56324D01*
X-22738Y-59000D01*
X-22386Y-61676D01*
X-21353Y-64169D01*
X-19710Y-66310D01*
X-17569Y-67953D01*
X-15076Y-68986D01*
X-12400Y-69338D01*
X-9724Y-68986D01*
X-7869Y-68218D01*
X6494Y-82580D01*
X6556Y-82678D01*
X6530Y-84153D01*
X6204Y-84404D01*
X4609Y-86482D01*
X3606Y-88903D01*
X3264Y-91500D01*
X3606Y-94097D01*
X4609Y-96518D01*
X6204Y-98596D01*
X8282Y-100191D01*
X10703Y-101194D01*
X13300Y-101536D01*
X15897Y-101194D01*
X17602Y-100488D01*
X102127Y-185013D01*
X101641Y-186186D01*
X87273D01*
X22288Y-121202D01*
X22994Y-119497D01*
X23336Y-116900D01*
X22994Y-114303D01*
X21991Y-111882D01*
X20396Y-109804D01*
X18318Y-108209D01*
X15898Y-107206D01*
X13300Y-106864D01*
X10703Y-107206D01*
X8282Y-108209D01*
X6204Y-109804D01*
X4609Y-111882D01*
X3606Y-114303D01*
X3264Y-116900D01*
X3606Y-119497D01*
X4609Y-121918D01*
X6204Y-123996D01*
X8282Y-125591D01*
X10703Y-126594D01*
X13300Y-126936D01*
X15898Y-126594D01*
X17602Y-125888D01*
X81227Y-189513D01*
X80741Y-190686D01*
X66372D01*
X22288Y-146602D01*
X22994Y-144897D01*
X23336Y-142300D01*
X22994Y-139703D01*
X21991Y-137282D01*
X20396Y-135204D01*
X18318Y-133609D01*
X15898Y-132606D01*
X13300Y-132264D01*
X10703Y-132606D01*
X8282Y-133609D01*
X6204Y-135204D01*
X4609Y-137282D01*
X3606Y-139703D01*
X3264Y-142300D01*
X3606Y-144897D01*
X4609Y-147318D01*
X6204Y-149396D01*
X8282Y-150991D01*
X10703Y-151994D01*
X13300Y-152336D01*
X15898Y-151994D01*
X17602Y-151288D01*
X60327Y-194013D01*
X59841Y-195186D01*
X45473D01*
X22288Y-172002D01*
X22994Y-170297D01*
X23336Y-167700D01*
X22994Y-165103D01*
X21991Y-162682D01*
X20396Y-160604D01*
X18318Y-159009D01*
X15898Y-158006D01*
X13300Y-157664D01*
X10703Y-158006D01*
X8282Y-159009D01*
X6204Y-160604D01*
X4609Y-162682D01*
X3606Y-165103D01*
X3264Y-167700D01*
X3606Y-170297D01*
X4609Y-172718D01*
X6204Y-174796D01*
X8282Y-176391D01*
X10703Y-177394D01*
X13300Y-177736D01*
X15898Y-177394D01*
X17602Y-176688D01*
X40533Y-199620D01*
X40007Y-200890D01*
X25776D01*
X22288Y-197402D01*
X22994Y-195697D01*
X23336Y-193100D01*
X22994Y-190502D01*
X21991Y-188082D01*
X20396Y-186004D01*
X18318Y-184409D01*
X15898Y-183406D01*
X13300Y-183064D01*
X10703Y-183406D01*
X8282Y-184409D01*
X6204Y-186004D01*
X4609Y-188082D01*
X3606Y-190502D01*
X3264Y-193100D01*
X3606Y-195697D01*
X4609Y-198118D01*
X6204Y-200196D01*
X8282Y-201791D01*
X10703Y-202794D01*
X13300Y-203136D01*
X15898Y-202794D01*
X17602Y-202088D01*
X22060Y-206546D01*
X23135Y-207265D01*
X24403Y-207517D01*
X104870D01*
X105250Y-207974D01*
X105022Y-209494D01*
X104256Y-210006D01*
X103261Y-211494D01*
X102936Y-213128D01*
X100878Y-215186D01*
X22697D01*
X21991Y-213482D01*
X20396Y-211404D01*
X18318Y-209809D01*
X15897Y-208806D01*
X13300Y-208464D01*
X10703Y-208806D01*
X8282Y-209809D01*
X6204Y-211404D01*
X4609Y-213482D01*
X3606Y-215903D01*
X3264Y-218500D01*
X3606Y-221098D01*
X4609Y-223518D01*
X5835Y-225116D01*
X5225Y-226386D01*
X473D01*
X-3112Y-222802D01*
X-2406Y-221098D01*
X-2064Y-218500D01*
X-2406Y-215903D01*
X-3409Y-213482D01*
X-5004Y-211404D01*
X-7082Y-209809D01*
X-9503Y-208806D01*
X-12100Y-208464D01*
X-14698Y-208806D01*
X-17118Y-209809D01*
X-19196Y-211404D01*
X-20791Y-213482D01*
X-21794Y-215903D01*
X-22136Y-218500D01*
X-21794Y-221098D01*
X-20791Y-223518D01*
X-19196Y-225596D01*
X-17118Y-227191D01*
X-14698Y-228194D01*
X-12100Y-228536D01*
X-9503Y-228194D01*
X-7798Y-227488D01*
X-3243Y-232043D01*
X-2168Y-232761D01*
X-900Y-233014D01*
X158300D01*
X159568Y-232761D01*
X160643Y-232043D01*
X171872Y-220814D01*
X173506Y-220489D01*
X174994Y-219494D01*
X175989Y-218006D01*
X176338Y-216250D01*
X175989Y-214494D01*
X174994Y-213006D01*
X173506Y-212011D01*
X171750Y-211662D01*
X171127Y-211786D01*
X170047Y-210706D01*
X170088Y-210500D01*
X169739Y-208744D01*
X168744Y-207256D01*
X168564Y-207135D01*
Y-189118D01*
X168311Y-187850D01*
X167593Y-186775D01*
X163475Y-182657D01*
X162400Y-181939D01*
X161132Y-181686D01*
X108173D01*
X22288Y-95802D01*
X22994Y-94097D01*
X23257Y-92100D01*
X24586Y-91633D01*
X35296Y-102343D01*
X36371Y-103061D01*
X37639Y-103314D01*
X111082D01*
X111761Y-104584D01*
X111235Y-105371D01*
X110886Y-107127D01*
X111235Y-108882D01*
X112230Y-110371D01*
X113718Y-111365D01*
X115352Y-111690D01*
X182086Y-178425D01*
Y-268528D01*
X180231Y-269297D01*
X178090Y-270940D01*
X176447Y-273081D01*
X175414Y-275574D01*
X175062Y-278250D01*
X175414Y-280926D01*
X176447Y-283419D01*
X178090Y-285560D01*
X180231Y-287203D01*
X182724Y-288236D01*
X185400Y-288588D01*
X188076Y-288236D01*
X190569Y-287203D01*
X192710Y-285560D01*
X194353Y-283419D01*
X195386Y-280926D01*
X195738Y-278250D01*
X195386Y-275574D01*
X194353Y-273081D01*
X192710Y-270940D01*
X190569Y-269297D01*
X188714Y-268528D01*
Y-262509D01*
X189887Y-262023D01*
X201583Y-273719D01*
X200814Y-275574D01*
X200462Y-278250D01*
X200814Y-280926D01*
X201847Y-283419D01*
X203490Y-285560D01*
X205631Y-287203D01*
X208124Y-288236D01*
X210800Y-288588D01*
X213476Y-288236D01*
X215969Y-287203D01*
X218110Y-285560D01*
X219753Y-283419D01*
X220786Y-280926D01*
X221138Y-278250D01*
X220786Y-275574D01*
X219753Y-273081D01*
X218110Y-270940D01*
X215969Y-269297D01*
X213476Y-268264D01*
X210800Y-267912D01*
X208124Y-268264D01*
X206269Y-269032D01*
X194314Y-257077D01*
Y-172876D01*
X194061Y-171608D01*
X193343Y-170533D01*
X135393Y-112584D01*
X135919Y-111314D01*
X177110D01*
X178494Y-112239D01*
X180250Y-112588D01*
X182006Y-112239D01*
X183494Y-111244D01*
X184294Y-110047D01*
X184672Y-109957D01*
X185328D01*
X185706Y-110047D01*
X186506Y-111244D01*
X187994Y-112239D01*
X189750Y-112588D01*
X191506Y-112239D01*
X192994Y-111244D01*
X193989Y-109756D01*
X194338Y-108000D01*
X193989Y-106244D01*
X192994Y-104756D01*
X191506Y-103761D01*
X189872Y-103436D01*
X184593Y-98157D01*
X183518Y-97439D01*
X182250Y-97186D01*
X134492D01*
X130462Y-93157D01*
X129387Y-92439D01*
X128119Y-92186D01*
X50873D01*
X23111Y-64425D01*
X23370Y-63125D01*
Y-54875D01*
X22895Y-52485D01*
X21541Y-50459D01*
X19515Y-49105D01*
X17125Y-48630D01*
D02*
G37*
G36*
X-8125Y-81433D02*
X-16075D01*
X-18406Y-81897D01*
X-20383Y-83217D01*
X-21703Y-85194D01*
X-22167Y-87525D01*
Y-95475D01*
X-21703Y-97806D01*
X-20383Y-99783D01*
X-18406Y-101103D01*
X-16075Y-101567D01*
X-8125D01*
X-5794Y-101103D01*
X-3817Y-99783D01*
X-2497Y-97806D01*
X-2033Y-95475D01*
Y-87525D01*
X-2497Y-85194D01*
X-3817Y-83217D01*
X-5794Y-81897D01*
X-8125Y-81433D01*
D02*
G37*
G36*
X103000Y-48662D02*
X100324Y-49014D01*
X97831Y-50047D01*
X95690Y-51690D01*
X94047Y-53831D01*
X93014Y-56324D01*
X92662Y-59000D01*
X93014Y-61676D01*
X94047Y-64169D01*
X95690Y-66310D01*
X97831Y-67953D01*
X100324Y-68986D01*
X103000Y-69338D01*
X105676Y-68986D01*
X106257Y-68745D01*
X124506Y-86994D01*
X125994Y-87989D01*
X127750Y-88338D01*
X180949D01*
X207747Y-115136D01*
X207790Y-115351D01*
X208895Y-117005D01*
X210549Y-118110D01*
X212500Y-118498D01*
X214451Y-118110D01*
X216105Y-117005D01*
X217210Y-115351D01*
X217598Y-113400D01*
X217210Y-111449D01*
X216105Y-109795D01*
X214451Y-108690D01*
X214236Y-108647D01*
X186094Y-80506D01*
X184606Y-79511D01*
X182850Y-79162D01*
X129650D01*
X112746Y-62257D01*
X112986Y-61676D01*
X113338Y-59000D01*
X112986Y-56324D01*
X111953Y-53831D01*
X110310Y-51690D01*
X108169Y-50047D01*
X105676Y-49014D01*
X103000Y-48662D01*
D02*
G37*
G36*
X-12100Y-106864D02*
X-14698Y-107206D01*
X-17118Y-108209D01*
X-19196Y-109804D01*
X-20791Y-111882D01*
X-21794Y-114303D01*
X-22136Y-116900D01*
X-21794Y-119497D01*
X-20791Y-121918D01*
X-19196Y-123996D01*
X-17118Y-125591D01*
X-14698Y-126594D01*
X-12100Y-126936D01*
X-9503Y-126594D01*
X-7082Y-125591D01*
X-5004Y-123996D01*
X-3409Y-121918D01*
X-2406Y-119497D01*
X-2064Y-116900D01*
X-2406Y-114303D01*
X-3409Y-111882D01*
X-5004Y-109804D01*
X-7082Y-108209D01*
X-9503Y-107206D01*
X-12100Y-106864D01*
D02*
G37*
G36*
X-12100Y-132264D02*
X-14698Y-132606D01*
X-17118Y-133609D01*
X-19196Y-135204D01*
X-20791Y-137282D01*
X-21794Y-139703D01*
X-22136Y-142300D01*
X-21794Y-144897D01*
X-20791Y-147318D01*
X-19196Y-149396D01*
X-17118Y-150991D01*
X-14698Y-151994D01*
X-12100Y-152336D01*
X-9503Y-151994D01*
X-7082Y-150991D01*
X-5004Y-149396D01*
X-3409Y-147318D01*
X-2406Y-144897D01*
X-2064Y-142300D01*
X-2406Y-139703D01*
X-3409Y-137282D01*
X-5004Y-135204D01*
X-7082Y-133609D01*
X-9503Y-132606D01*
X-12100Y-132264D01*
D02*
G37*
G36*
Y-157664D02*
X-14698Y-158006D01*
X-17118Y-159009D01*
X-19196Y-160604D01*
X-20791Y-162682D01*
X-21794Y-165103D01*
X-22136Y-167700D01*
X-21794Y-170297D01*
X-20791Y-172718D01*
X-19196Y-174796D01*
X-17118Y-176391D01*
X-14698Y-177394D01*
X-12100Y-177736D01*
X-9503Y-177394D01*
X-7082Y-176391D01*
X-5004Y-174796D01*
X-3409Y-172718D01*
X-2406Y-170297D01*
X-2064Y-167700D01*
X-2406Y-165103D01*
X-3409Y-162682D01*
X-5004Y-160604D01*
X-7082Y-159009D01*
X-9503Y-158006D01*
X-12100Y-157664D01*
D02*
G37*
G36*
X-12100Y-183064D02*
X-14698Y-183406D01*
X-17118Y-184409D01*
X-19196Y-186004D01*
X-20791Y-188082D01*
X-21794Y-190502D01*
X-22136Y-193100D01*
X-21794Y-195697D01*
X-20791Y-198118D01*
X-19196Y-200196D01*
X-17118Y-201791D01*
X-14698Y-202794D01*
X-12100Y-203136D01*
X-9503Y-202794D01*
X-7082Y-201791D01*
X-5004Y-200196D01*
X-3409Y-198118D01*
X-2406Y-195697D01*
X-2064Y-193100D01*
X-2406Y-190502D01*
X-3409Y-188082D01*
X-5004Y-186004D01*
X-7082Y-184409D01*
X-9503Y-183406D01*
X-12100Y-183064D01*
D02*
G37*
G36*
X160000Y-267912D02*
X157324Y-268264D01*
X154831Y-269297D01*
X152690Y-270940D01*
X151047Y-273081D01*
X150014Y-275574D01*
X149662Y-278250D01*
X150014Y-280926D01*
X151047Y-283419D01*
X152690Y-285560D01*
X154831Y-287203D01*
X157324Y-288236D01*
X160000Y-288588D01*
X162676Y-288236D01*
X165169Y-287203D01*
X167310Y-285560D01*
X168953Y-283419D01*
X169986Y-280926D01*
X170338Y-278250D01*
X169986Y-275574D01*
X168953Y-273081D01*
X167310Y-270940D01*
X165169Y-269297D01*
X162676Y-268264D01*
X160000Y-267912D01*
D02*
G37*
G36*
X134600D02*
X131924Y-268264D01*
X129431Y-269297D01*
X127290Y-270940D01*
X125647Y-273081D01*
X124614Y-275574D01*
X124262Y-278250D01*
X124614Y-280926D01*
X125647Y-283419D01*
X127290Y-285560D01*
X129431Y-287203D01*
X131924Y-288236D01*
X134600Y-288588D01*
X137276Y-288236D01*
X139769Y-287203D01*
X141910Y-285560D01*
X143553Y-283419D01*
X144586Y-280926D01*
X144938Y-278250D01*
X144586Y-275574D01*
X143553Y-273081D01*
X141910Y-270940D01*
X139769Y-269297D01*
X137276Y-268264D01*
X134600Y-267912D01*
D02*
G37*
G36*
X109200D02*
X106524Y-268264D01*
X104031Y-269297D01*
X101890Y-270940D01*
X100247Y-273081D01*
X99214Y-275574D01*
X98862Y-278250D01*
X99214Y-280926D01*
X100247Y-283419D01*
X101890Y-285560D01*
X104031Y-287203D01*
X106524Y-288236D01*
X109200Y-288588D01*
X111876Y-288236D01*
X114369Y-287203D01*
X116510Y-285560D01*
X118153Y-283419D01*
X119186Y-280926D01*
X119538Y-278250D01*
X119186Y-275574D01*
X118153Y-273081D01*
X116510Y-270940D01*
X114369Y-269297D01*
X111876Y-268264D01*
X109200Y-267912D01*
D02*
G37*
G36*
X87925Y-267880D02*
X79675D01*
X77285Y-268355D01*
X75259Y-269709D01*
X73905Y-271735D01*
X73430Y-274125D01*
Y-282375D01*
X73905Y-284765D01*
X75259Y-286791D01*
X77285Y-288145D01*
X79675Y-288620D01*
X87925D01*
X90315Y-288145D01*
X92341Y-286791D01*
X93695Y-284765D01*
X94170Y-282375D01*
Y-274125D01*
X93695Y-271735D01*
X92341Y-269709D01*
X90315Y-268355D01*
X87925Y-267880D01*
D02*
G37*
%LPD*%
G36*
X155261Y-193256D02*
X156256Y-194744D01*
X157744Y-195739D01*
X159500Y-196088D01*
X160666Y-195856D01*
X161936Y-196695D01*
Y-207734D01*
X161261Y-208744D01*
X160912Y-210500D01*
X161261Y-212256D01*
X162256Y-213744D01*
X163744Y-214739D01*
X165500Y-215088D01*
X166123Y-214964D01*
X167203Y-216044D01*
X167186Y-216128D01*
X156927Y-226386D01*
X21375D01*
X20765Y-225116D01*
X21991Y-223518D01*
X22697Y-221814D01*
X102250D01*
X103518Y-221561D01*
X104593Y-220843D01*
X107622Y-217814D01*
X109256Y-217489D01*
X110744Y-216494D01*
X111111Y-215945D01*
X112639D01*
X113006Y-216494D01*
X114494Y-217489D01*
X116250Y-217838D01*
X118006Y-217489D01*
X119494Y-216494D01*
X120489Y-215006D01*
X120619Y-214351D01*
X121997Y-213933D01*
X126657Y-218593D01*
X127732Y-219311D01*
X129000Y-219564D01*
X145610D01*
X146994Y-220489D01*
X148750Y-220838D01*
X150506Y-220489D01*
X151994Y-219494D01*
X152989Y-218006D01*
X153338Y-216250D01*
X154368Y-214916D01*
X155256Y-214739D01*
X156744Y-213744D01*
X157739Y-212256D01*
X158088Y-210500D01*
X157739Y-208744D01*
X156744Y-207256D01*
X155256Y-206261D01*
X153500Y-205912D01*
X151744Y-206261D01*
X150359Y-207186D01*
X130987D01*
X117787Y-193987D01*
X118273Y-192814D01*
X155173D01*
X155261Y-193256D01*
D02*
G37*
D10*
X103000Y-59000D02*
X127750Y-83750D01*
X182850D02*
X212500Y-113400D01*
X127750Y-83750D02*
X182850D01*
D12*
X165250Y-210250D02*
Y-189118D01*
X13300Y-116900D02*
X85900Y-189500D01*
X44100Y-198500D02*
X111250D01*
X129000Y-216250D02*
X148750D01*
X111250Y-198500D02*
X129000Y-216250D01*
X13300Y-193100D02*
X24403Y-204203D01*
X107203D01*
X116250Y-213250D01*
X13300Y-218500D02*
X102250D01*
X-900Y-229700D02*
X158300D01*
X171750Y-216250D01*
X129614Y-210500D02*
X153500D01*
X85900Y-189500D02*
X156824D01*
X13300Y-167700D02*
X44100Y-198500D01*
X-12100Y-218500D02*
X-900Y-229700D01*
X13300Y-142300D02*
X65000Y-194000D01*
X113114D01*
X129614Y-210500D01*
X13300Y-91500D02*
X106800Y-185000D01*
X161132D01*
X165250Y-189118D01*
X158823Y-191500D02*
X159500D01*
X156824Y-189500D02*
X158823Y-191500D01*
X165250Y-210250D02*
X165500Y-210500D01*
X102250Y-218500D02*
X107500Y-213250D01*
X115474Y-107127D02*
X185400Y-177052D01*
X125250Y-107127D02*
X191000Y-172876D01*
X37639Y-100000D02*
X126255D01*
X191000Y-258450D02*
X210800Y-278250D01*
X191000Y-258450D02*
Y-172876D01*
X185400Y-278250D02*
Y-177052D01*
X133119Y-100500D02*
X182250D01*
X49500Y-95500D02*
X128119D01*
X182250Y-100500D02*
X189750Y-108000D01*
X13000Y-59000D02*
X49500Y-95500D01*
X128119D02*
X133119Y-100500D01*
X17939Y-80300D02*
X37639Y-100000D01*
X126255D02*
X134255Y-108000D01*
X8900Y-80300D02*
X17939D01*
X-12400Y-59000D02*
X8900Y-80300D01*
X134255Y-108000D02*
X180250D01*
D73*
X340000Y0D02*
D03*
X247000Y-350000D02*
D03*
X0Y0D02*
D03*
X90000Y-350000D02*
D03*
D74*
X-12100Y-91500D02*
D03*
D75*
X13300D02*
D03*
X-12100Y-116900D02*
D03*
X13300D02*
D03*
X-12100Y-142300D02*
D03*
X13300D02*
D03*
X-12100Y-167700D02*
D03*
X13300D02*
D03*
X-12100Y-193100D02*
D03*
X13300D02*
D03*
X-12100Y-218500D02*
D03*
X13300D02*
D03*
D76*
X52200Y-59000D02*
D03*
X13000Y-59000D02*
D03*
X83800Y-278250D02*
D03*
D77*
X77600Y-59000D02*
D03*
X103000D02*
D03*
X128400D02*
D03*
X-12400Y-59000D02*
D03*
X185400Y-278250D02*
D03*
X210800D02*
D03*
X109200D02*
D03*
X134600D02*
D03*
X160000D02*
D03*
X334750Y-59750D02*
D03*
D78*
X215750Y-21000D02*
D03*
X165750Y-21000D02*
D03*
D79*
X225750Y6000D02*
D03*
X155750D02*
D03*
D80*
X334750Y-85150D02*
D03*
D81*
X340003Y-40246D02*
D03*
X350003Y-60246D02*
D03*
Y-100246D02*
D03*
X340003Y-120246D02*
D03*
X350003Y-140246D02*
D03*
X320003Y-40246D02*
D03*
X330003Y-100246D02*
D03*
Y-140246D02*
D03*
X320003Y-160246D02*
D03*
X300003Y-246D02*
D03*
X310003Y-20246D02*
D03*
X300003Y-40246D02*
D03*
X310003Y-100246D02*
D03*
Y-140246D02*
D03*
X280003Y-246D02*
D03*
X290003Y-20246D02*
D03*
Y-140246D02*
D03*
X280003Y-160246D02*
D03*
Y-200246D02*
D03*
X260003Y-246D02*
D03*
X270003Y-20246D02*
D03*
Y-100246D02*
D03*
Y-140246D02*
D03*
X260003Y-160246D02*
D03*
Y-200246D02*
D03*
X270003Y-220246D02*
D03*
X260003Y-240246D02*
D03*
X270003Y-260246D02*
D03*
X260003Y-280246D02*
D03*
X270003Y-300246D02*
D03*
X260003Y-320246D02*
D03*
X240003Y-246D02*
D03*
X250003Y-20246D02*
D03*
Y-100246D02*
D03*
Y-220246D02*
D03*
X240003Y-240246D02*
D03*
X250003Y-260246D02*
D03*
X240003Y-280246D02*
D03*
X250003Y-300246D02*
D03*
X240003Y-320246D02*
D03*
X230003Y-20246D02*
D03*
Y-60246D02*
D03*
X220003Y-80246D02*
D03*
X230003Y-100246D02*
D03*
Y-140246D02*
D03*
X220003Y-200246D02*
D03*
X230003Y-220246D02*
D03*
X220003Y-240246D02*
D03*
X230003Y-260246D02*
D03*
Y-300246D02*
D03*
X220003Y-320246D02*
D03*
Y-360246D02*
D03*
X210003Y-60246D02*
D03*
X200003Y-120246D02*
D03*
Y-160246D02*
D03*
X210003Y-220246D02*
D03*
X200003Y-240246D02*
D03*
X210003Y-260246D02*
D03*
Y-300246D02*
D03*
X200003Y-320246D02*
D03*
X210003Y-340246D02*
D03*
X200003Y-360246D02*
D03*
X180003Y-40246D02*
D03*
Y-120246D02*
D03*
X190003Y-140246D02*
D03*
Y-300246D02*
D03*
X180003Y-320246D02*
D03*
X190003Y-340246D02*
D03*
X180003Y-360246D02*
D03*
X160003Y-40246D02*
D03*
X170003Y-60246D02*
D03*
X160003Y-120246D02*
D03*
X170003Y-180246D02*
D03*
X160003Y-240246D02*
D03*
X170003Y-260246D02*
D03*
Y-300246D02*
D03*
X160003Y-320246D02*
D03*
X170003Y-340246D02*
D03*
X160003Y-360246D02*
D03*
X140003Y-246D02*
D03*
X150003Y-20246D02*
D03*
X140003Y-40246D02*
D03*
X150003Y-60246D02*
D03*
Y-300246D02*
D03*
X140003Y-320246D02*
D03*
X150003Y-340246D02*
D03*
X140003Y-360246D02*
D03*
X120003Y-246D02*
D03*
X130003Y-20246D02*
D03*
X120003Y-40246D02*
D03*
X130003Y-300246D02*
D03*
X120003Y-320246D02*
D03*
X130003Y-340246D02*
D03*
X120003Y-360246D02*
D03*
X100003Y-246D02*
D03*
X110003Y-20246D02*
D03*
X100003Y-40246D02*
D03*
X110003Y-140246D02*
D03*
X100003Y-240246D02*
D03*
X110003Y-300246D02*
D03*
X100003Y-320246D02*
D03*
X80003Y-246D02*
D03*
X90003Y-20246D02*
D03*
X80003Y-40246D02*
D03*
Y-240246D02*
D03*
X90003Y-260246D02*
D03*
Y-300246D02*
D03*
X80003Y-320246D02*
D03*
X60003Y-246D02*
D03*
X70003Y-20246D02*
D03*
X60003Y-40246D02*
D03*
Y-80246D02*
D03*
Y-240246D02*
D03*
X70003Y-260246D02*
D03*
X60003Y-280246D02*
D03*
X70003Y-300246D02*
D03*
X60003Y-320246D02*
D03*
Y-360246D02*
D03*
X40003Y-246D02*
D03*
X50003Y-20246D02*
D03*
X40003Y-40246D02*
D03*
X50003Y-300246D02*
D03*
X30003Y-20246D02*
D03*
X20003Y-40246D02*
D03*
X30003Y-60246D02*
D03*
X20003Y-240246D02*
D03*
X30003Y-260246D02*
D03*
X20003Y-280246D02*
D03*
X30003Y-300246D02*
D03*
X20003Y-320246D02*
D03*
X30003Y-340246D02*
D03*
X20003Y-360246D02*
D03*
X3Y-40246D02*
D03*
X10003Y-260246D02*
D03*
Y-300246D02*
D03*
X3Y-320246D02*
D03*
X10003Y-340246D02*
D03*
X-19997Y-40246D02*
D03*
Y-240246D02*
D03*
Y-280246D02*
D03*
X-9997Y-300246D02*
D03*
X-19997Y-320246D02*
D03*
Y-360246D02*
D03*
D82*
X116250Y-213250D02*
D03*
X107500D02*
D03*
X171750Y-216250D02*
D03*
X159500Y-191500D02*
D03*
X125250Y-107127D02*
D03*
X115474D02*
D03*
X148750Y-216250D02*
D03*
X153500Y-210500D02*
D03*
X165500D02*
D03*
X189750Y-108000D02*
D03*
X180250D02*
D03*
D83*
X212500Y-113400D02*
D03*
M02*
