G04*
G04 #@! TF.GenerationSoftware,Altium Limited,Altium Designer,21.9.2 (33)*
G04*
G04 Layer_Physical_Order=1*
G04 Layer_Color=255*
%FSLAX44Y44*%
%MOMM*%
G71*
G04*
G04 #@! TF.SameCoordinates,1F5C1B73-E678-4566-9102-B3B9492829AA*
G04*
G04*
G04 #@! TF.FilePolarity,Positive*
G04*
G01*
G75*
%ADD10C,0.5000*%
%ADD11C,0.3000*%
%ADD12C,0.2500*%
%ADD14C,0.2000*%
G04:AMPARAMS|DCode=15|XSize=0.5mm|YSize=0.5mm|CornerRadius=0.125mm|HoleSize=0mm|Usage=FLASHONLY|Rotation=90.000|XOffset=0mm|YOffset=0mm|HoleType=Round|Shape=RoundedRectangle|*
%AMROUNDEDRECTD15*
21,1,0.5000,0.2500,0,0,90.0*
21,1,0.2500,0.5000,0,0,90.0*
1,1,0.2500,0.1250,0.1250*
1,1,0.2500,0.1250,-0.1250*
1,1,0.2500,-0.1250,-0.1250*
1,1,0.2500,-0.1250,0.1250*
%
%ADD15ROUNDEDRECTD15*%
G04:AMPARAMS|DCode=16|XSize=0.5mm|YSize=0.5mm|CornerRadius=0.125mm|HoleSize=0mm|Usage=FLASHONLY|Rotation=0.000|XOffset=0mm|YOffset=0mm|HoleType=Round|Shape=RoundedRectangle|*
%AMROUNDEDRECTD16*
21,1,0.5000,0.2500,0,0,0.0*
21,1,0.2500,0.5000,0,0,0.0*
1,1,0.2500,0.1250,-0.1250*
1,1,0.2500,-0.1250,-0.1250*
1,1,0.2500,-0.1250,0.1250*
1,1,0.2500,0.1250,0.1250*
%
%ADD16ROUNDEDRECTD16*%
G04:AMPARAMS|DCode=17|XSize=0.4mm|YSize=1.2mm|CornerRadius=0.1mm|HoleSize=0mm|Usage=FLASHONLY|Rotation=90.000|XOffset=0mm|YOffset=0mm|HoleType=Round|Shape=RoundedRectangle|*
%AMROUNDEDRECTD17*
21,1,0.4000,1.0000,0,0,90.0*
21,1,0.2000,1.2000,0,0,90.0*
1,1,0.2000,0.5000,0.1000*
1,1,0.2000,0.5000,-0.1000*
1,1,0.2000,-0.5000,-0.1000*
1,1,0.2000,-0.5000,0.1000*
%
%ADD17ROUNDEDRECTD17*%
G04:AMPARAMS|DCode=18|XSize=0.4mm|YSize=1.2mm|CornerRadius=0.1mm|HoleSize=0mm|Usage=FLASHONLY|Rotation=180.000|XOffset=0mm|YOffset=0mm|HoleType=Round|Shape=RoundedRectangle|*
%AMROUNDEDRECTD18*
21,1,0.4000,1.0000,0,0,180.0*
21,1,0.2000,1.2000,0,0,180.0*
1,1,0.2000,-0.1000,0.5000*
1,1,0.2000,0.1000,0.5000*
1,1,0.2000,0.1000,-0.5000*
1,1,0.2000,-0.1000,-0.5000*
%
%ADD18ROUNDEDRECTD18*%
G04:AMPARAMS|DCode=19|XSize=2.1mm|YSize=2.1mm|CornerRadius=0.525mm|HoleSize=0mm|Usage=FLASHONLY|Rotation=0.000|XOffset=0mm|YOffset=0mm|HoleType=Round|Shape=RoundedRectangle|*
%AMROUNDEDRECTD19*
21,1,2.1000,1.0500,0,0,0.0*
21,1,1.0500,2.1000,0,0,0.0*
1,1,1.0500,0.5250,-0.5250*
1,1,1.0500,-0.5250,-0.5250*
1,1,1.0500,-0.5250,0.5250*
1,1,1.0500,0.5250,0.5250*
%
%ADD19ROUNDEDRECTD19*%
G04:AMPARAMS|DCode=20|XSize=0.7mm|YSize=3.5mm|CornerRadius=0.175mm|HoleSize=0mm|Usage=FLASHONLY|Rotation=180.000|XOffset=0mm|YOffset=0mm|HoleType=Round|Shape=RoundedRectangle|*
%AMROUNDEDRECTD20*
21,1,0.7000,3.1500,0,0,180.0*
21,1,0.3500,3.5000,0,0,180.0*
1,1,0.3500,-0.1750,1.5750*
1,1,0.3500,0.1750,1.5750*
1,1,0.3500,0.1750,-1.5750*
1,1,0.3500,-0.1750,-1.5750*
%
%ADD20ROUNDEDRECTD20*%
G04:AMPARAMS|DCode=21|XSize=0.58mm|YSize=0.58mm|CornerRadius=0.145mm|HoleSize=0mm|Usage=FLASHONLY|Rotation=90.000|XOffset=0mm|YOffset=0mm|HoleType=Round|Shape=RoundedRectangle|*
%AMROUNDEDRECTD21*
21,1,0.5800,0.2900,0,0,90.0*
21,1,0.2900,0.5800,0,0,90.0*
1,1,0.2900,0.1450,0.1450*
1,1,0.2900,0.1450,-0.1450*
1,1,0.2900,-0.1450,-0.1450*
1,1,0.2900,-0.1450,0.1450*
%
%ADD21ROUNDEDRECTD21*%
G04:AMPARAMS|DCode=22|XSize=0.53mm|YSize=0.58mm|CornerRadius=0.1325mm|HoleSize=0mm|Usage=FLASHONLY|Rotation=90.000|XOffset=0mm|YOffset=0mm|HoleType=Round|Shape=RoundedRectangle|*
%AMROUNDEDRECTD22*
21,1,0.5300,0.3150,0,0,90.0*
21,1,0.2650,0.5800,0,0,90.0*
1,1,0.2650,0.1575,0.1325*
1,1,0.2650,0.1575,-0.1325*
1,1,0.2650,-0.1575,-0.1325*
1,1,0.2650,-0.1575,0.1325*
%
%ADD22ROUNDEDRECTD22*%
G04:AMPARAMS|DCode=23|XSize=0.58mm|YSize=0.58mm|CornerRadius=0.145mm|HoleSize=0mm|Usage=FLASHONLY|Rotation=294.000|XOffset=0mm|YOffset=0mm|HoleType=Round|Shape=RoundedRectangle|*
%AMROUNDEDRECTD23*
21,1,0.5800,0.2900,0,0,294.0*
21,1,0.2900,0.5800,0,0,294.0*
1,1,0.2900,-0.0735,-0.1914*
1,1,0.2900,-0.1914,0.0735*
1,1,0.2900,0.0735,0.1914*
1,1,0.2900,0.1914,-0.0735*
%
%ADD23ROUNDEDRECTD23*%
G04:AMPARAMS|DCode=24|XSize=1.6mm|YSize=2.44mm|CornerRadius=0.08mm|HoleSize=0mm|Usage=FLASHONLY|Rotation=0.000|XOffset=0mm|YOffset=0mm|HoleType=Round|Shape=RoundedRectangle|*
%AMROUNDEDRECTD24*
21,1,1.6000,2.2800,0,0,0.0*
21,1,1.4400,2.4400,0,0,0.0*
1,1,0.1600,0.7200,-1.1400*
1,1,0.1600,-0.7200,-1.1400*
1,1,0.1600,-0.7200,1.1400*
1,1,0.1600,0.7200,1.1400*
%
%ADD24ROUNDEDRECTD24*%
G04:AMPARAMS|DCode=25|XSize=0.76mm|YSize=0.27mm|CornerRadius=0.0675mm|HoleSize=0mm|Usage=FLASHONLY|Rotation=0.000|XOffset=0mm|YOffset=0mm|HoleType=Round|Shape=RoundedRectangle|*
%AMROUNDEDRECTD25*
21,1,0.7600,0.1350,0,0,0.0*
21,1,0.6250,0.2700,0,0,0.0*
1,1,0.1350,0.3125,-0.0675*
1,1,0.1350,-0.3125,-0.0675*
1,1,0.1350,-0.3125,0.0675*
1,1,0.1350,0.3125,0.0675*
%
%ADD25ROUNDEDRECTD25*%
G04:AMPARAMS|DCode=26|XSize=1mm|YSize=1.9mm|CornerRadius=0.25mm|HoleSize=0mm|Usage=FLASHONLY|Rotation=0.000|XOffset=0mm|YOffset=0mm|HoleType=Round|Shape=RoundedRectangle|*
%AMROUNDEDRECTD26*
21,1,1.0000,1.4000,0,0,0.0*
21,1,0.5000,1.9000,0,0,0.0*
1,1,0.5000,0.2500,-0.7000*
1,1,0.5000,-0.2500,-0.7000*
1,1,0.5000,-0.2500,0.7000*
1,1,0.5000,0.2500,0.7000*
%
%ADD26ROUNDEDRECTD26*%
G04:AMPARAMS|DCode=27|XSize=0.4mm|YSize=1.35mm|CornerRadius=0.1mm|HoleSize=0mm|Usage=FLASHONLY|Rotation=180.000|XOffset=0mm|YOffset=0mm|HoleType=Round|Shape=RoundedRectangle|*
%AMROUNDEDRECTD27*
21,1,0.4000,1.1500,0,0,180.0*
21,1,0.2000,1.3500,0,0,180.0*
1,1,0.2000,-0.1000,0.5750*
1,1,0.2000,0.1000,0.5750*
1,1,0.2000,0.1000,-0.5750*
1,1,0.2000,-0.1000,-0.5750*
%
%ADD27ROUNDEDRECTD27*%
G04:AMPARAMS|DCode=28|XSize=1.5mm|YSize=1.9mm|CornerRadius=0.375mm|HoleSize=0mm|Usage=FLASHONLY|Rotation=180.000|XOffset=0mm|YOffset=0mm|HoleType=Round|Shape=RoundedRectangle|*
%AMROUNDEDRECTD28*
21,1,1.5000,1.1500,0,0,180.0*
21,1,0.7500,1.9000,0,0,180.0*
1,1,0.7500,-0.3750,0.5750*
1,1,0.7500,0.3750,0.5750*
1,1,0.7500,0.3750,-0.5750*
1,1,0.7500,-0.3750,-0.5750*
%
%ADD28ROUNDEDRECTD28*%
G04:AMPARAMS|DCode=29|XSize=0.55mm|YSize=0.55mm|CornerRadius=0.1375mm|HoleSize=0mm|Usage=FLASHONLY|Rotation=0.000|XOffset=0mm|YOffset=0mm|HoleType=Round|Shape=RoundedRectangle|*
%AMROUNDEDRECTD29*
21,1,0.5500,0.2750,0,0,0.0*
21,1,0.2750,0.5500,0,0,0.0*
1,1,0.2750,0.1375,-0.1375*
1,1,0.2750,-0.1375,-0.1375*
1,1,0.2750,-0.1375,0.1375*
1,1,0.2750,0.1375,0.1375*
%
%ADD29ROUNDEDRECTD29*%
G04:AMPARAMS|DCode=30|XSize=0.6mm|YSize=1.1mm|CornerRadius=0.15mm|HoleSize=0mm|Usage=FLASHONLY|Rotation=180.000|XOffset=0mm|YOffset=0mm|HoleType=Round|Shape=RoundedRectangle|*
%AMROUNDEDRECTD30*
21,1,0.6000,0.8000,0,0,180.0*
21,1,0.3000,1.1000,0,0,180.0*
1,1,0.3000,-0.1500,0.4000*
1,1,0.3000,0.1500,0.4000*
1,1,0.3000,0.1500,-0.4000*
1,1,0.3000,-0.1500,-0.4000*
%
%ADD30ROUNDEDRECTD30*%
G04:AMPARAMS|DCode=31|XSize=0.95mm|YSize=0.65mm|CornerRadius=0.0813mm|HoleSize=0mm|Usage=FLASHONLY|Rotation=180.000|XOffset=0mm|YOffset=0mm|HoleType=Round|Shape=RoundedRectangle|*
%AMROUNDEDRECTD31*
21,1,0.9500,0.4875,0,0,180.0*
21,1,0.7875,0.6500,0,0,180.0*
1,1,0.1625,-0.3938,0.2438*
1,1,0.1625,0.3938,0.2438*
1,1,0.1625,0.3938,-0.2438*
1,1,0.1625,-0.3938,-0.2438*
%
%ADD31ROUNDEDRECTD31*%
G04:AMPARAMS|DCode=32|XSize=0.42mm|YSize=0.61mm|CornerRadius=0.105mm|HoleSize=0mm|Usage=FLASHONLY|Rotation=270.000|XOffset=0mm|YOffset=0mm|HoleType=Round|Shape=RoundedRectangle|*
%AMROUNDEDRECTD32*
21,1,0.4200,0.4000,0,0,270.0*
21,1,0.2100,0.6100,0,0,270.0*
1,1,0.2100,-0.2000,-0.1050*
1,1,0.2100,-0.2000,0.1050*
1,1,0.2100,0.2000,0.1050*
1,1,0.2100,0.2000,-0.1050*
%
%ADD32ROUNDEDRECTD32*%
G04:AMPARAMS|DCode=33|XSize=0.58mm|YSize=0.58mm|CornerRadius=0.145mm|HoleSize=0mm|Usage=FLASHONLY|Rotation=0.000|XOffset=0mm|YOffset=0mm|HoleType=Round|Shape=RoundedRectangle|*
%AMROUNDEDRECTD33*
21,1,0.5800,0.2900,0,0,0.0*
21,1,0.2900,0.5800,0,0,0.0*
1,1,0.2900,0.1450,-0.1450*
1,1,0.2900,-0.1450,-0.1450*
1,1,0.2900,-0.1450,0.1450*
1,1,0.2900,0.1450,0.1450*
%
%ADD33ROUNDEDRECTD33*%
G04:AMPARAMS|DCode=34|XSize=0.53mm|YSize=0.58mm|CornerRadius=0.1325mm|HoleSize=0mm|Usage=FLASHONLY|Rotation=0.000|XOffset=0mm|YOffset=0mm|HoleType=Round|Shape=RoundedRectangle|*
%AMROUNDEDRECTD34*
21,1,0.5300,0.3150,0,0,0.0*
21,1,0.2650,0.5800,0,0,0.0*
1,1,0.2650,0.1325,-0.1575*
1,1,0.2650,-0.1325,-0.1575*
1,1,0.2650,-0.1325,0.1575*
1,1,0.2650,0.1325,0.1575*
%
%ADD34ROUNDEDRECTD34*%
G04:AMPARAMS|DCode=35|XSize=1.05mm|YSize=2.2mm|CornerRadius=0.2625mm|HoleSize=0mm|Usage=FLASHONLY|Rotation=270.000|XOffset=0mm|YOffset=0mm|HoleType=Round|Shape=RoundedRectangle|*
%AMROUNDEDRECTD35*
21,1,1.0500,1.6750,0,0,270.0*
21,1,0.5250,2.2000,0,0,270.0*
1,1,0.5250,-0.8375,-0.2625*
1,1,0.5250,-0.8375,0.2625*
1,1,0.5250,0.8375,0.2625*
1,1,0.5250,0.8375,-0.2625*
%
%ADD35ROUNDEDRECTD35*%
G04:AMPARAMS|DCode=36|XSize=1mm|YSize=1mm|CornerRadius=0.25mm|HoleSize=0mm|Usage=FLASHONLY|Rotation=270.000|XOffset=0mm|YOffset=0mm|HoleType=Round|Shape=RoundedRectangle|*
%AMROUNDEDRECTD36*
21,1,1.0000,0.5000,0,0,270.0*
21,1,0.5000,1.0000,0,0,270.0*
1,1,0.5000,-0.2500,-0.2500*
1,1,0.5000,-0.2500,0.2500*
1,1,0.5000,0.2500,0.2500*
1,1,0.5000,0.2500,-0.2500*
%
%ADD36ROUNDEDRECTD36*%
%ADD67C,0.4000*%
%ADD68C,0.5500*%
%ADD69C,0.7500*%
%ADD70R,1.2000X0.7000*%
%ADD71R,0.7600X0.5000*%
%ADD72R,0.7600X1.0000*%
%ADD73C,4.5000*%
G04:AMPARAMS|DCode=74|XSize=1.59mm|YSize=1.59mm|CornerRadius=0.3975mm|HoleSize=0mm|Usage=FLASHONLY|Rotation=270.000|XOffset=0mm|YOffset=0mm|HoleType=Round|Shape=RoundedRectangle|*
%AMROUNDEDRECTD74*
21,1,1.5900,0.7950,0,0,270.0*
21,1,0.7950,1.5900,0,0,270.0*
1,1,0.7950,-0.3975,-0.3975*
1,1,0.7950,-0.3975,0.3975*
1,1,0.7950,0.3975,0.3975*
1,1,0.7950,0.3975,-0.3975*
%
%ADD74ROUNDEDRECTD74*%
%ADD75C,1.5900*%
G04:AMPARAMS|DCode=76|XSize=1.65mm|YSize=1.65mm|CornerRadius=0.4125mm|HoleSize=0mm|Usage=FLASHONLY|Rotation=0.000|XOffset=0mm|YOffset=0mm|HoleType=Round|Shape=RoundedRectangle|*
%AMROUNDEDRECTD76*
21,1,1.6500,0.8250,0,0,0.0*
21,1,0.8250,1.6500,0,0,0.0*
1,1,0.8250,0.4125,-0.4125*
1,1,0.8250,-0.4125,-0.4125*
1,1,0.8250,-0.4125,0.4125*
1,1,0.8250,0.4125,0.4125*
%
%ADD76ROUNDEDRECTD76*%
%ADD77C,1.6500*%
G04:AMPARAMS|DCode=78|XSize=1.45mm|YSize=1.45mm|CornerRadius=0.3625mm|HoleSize=0mm|Usage=FLASHONLY|Rotation=180.000|XOffset=0mm|YOffset=0mm|HoleType=Round|Shape=RoundedRectangle|*
%AMROUNDEDRECTD78*
21,1,1.4500,0.7250,0,0,180.0*
21,1,0.7250,1.4500,0,0,180.0*
1,1,0.7250,-0.3625,0.3625*
1,1,0.7250,0.3625,0.3625*
1,1,0.7250,0.3625,-0.3625*
1,1,0.7250,-0.3625,-0.3625*
%
%ADD78ROUNDEDRECTD78*%
G04:AMPARAMS|DCode=79|XSize=1.2mm|YSize=1.9mm|CornerRadius=0.3mm|HoleSize=0mm|Usage=FLASHONLY|Rotation=180.000|XOffset=0mm|YOffset=0mm|HoleType=Round|Shape=RoundedRectangle|*
%AMROUNDEDRECTD79*
21,1,1.2000,1.3000,0,0,180.0*
21,1,0.6000,1.9000,0,0,180.0*
1,1,0.6000,-0.3000,0.6500*
1,1,0.6000,0.3000,0.6500*
1,1,0.6000,0.3000,-0.6500*
1,1,0.6000,-0.3000,-0.6500*
%
%ADD79ROUNDEDRECTD79*%
G04:AMPARAMS|DCode=80|XSize=1.65mm|YSize=1.65mm|CornerRadius=0.4125mm|HoleSize=0mm|Usage=FLASHONLY|Rotation=90.000|XOffset=0mm|YOffset=0mm|HoleType=Round|Shape=RoundedRectangle|*
%AMROUNDEDRECTD80*
21,1,1.6500,0.8250,0,0,90.0*
21,1,0.8250,1.6500,0,0,90.0*
1,1,0.8250,0.4125,0.4125*
1,1,0.8250,0.4125,-0.4125*
1,1,0.8250,-0.4125,-0.4125*
1,1,0.8250,-0.4125,0.4125*
%
%ADD80ROUNDEDRECTD80*%
%ADD81C,0.8000*%
%ADD82C,0.5000*%
%ADD83C,0.6000*%
G36*
X358632Y26972D02*
X360898Y26034D01*
X362937Y24671D01*
X364671Y22937D01*
X366034Y20898D01*
X366973Y18632D01*
X367451Y16226D01*
Y15000D01*
Y-195000D01*
X367500Y-195246D01*
Y-195980D01*
X366973Y-198632D01*
X366034Y-200898D01*
X364671Y-202937D01*
X362937Y-204671D01*
X360898Y-206034D01*
X358632Y-206973D01*
X356226Y-207451D01*
X355000D01*
X317314Y-207451D01*
Y-200750D01*
X317061Y-199482D01*
X316668Y-198893D01*
X316667Y-198890D01*
X316661Y-198883D01*
X316544Y-198708D01*
X316525Y-198667D01*
X316504Y-198647D01*
X316343Y-198407D01*
X316158Y-198283D01*
X316155Y-198280D01*
X316038Y-198186D01*
X315957Y-198102D01*
X315803Y-197909D01*
X315641Y-197675D01*
X314419Y-195381D01*
X310178Y-185857D01*
X310223Y-185597D01*
X309920Y-184259D01*
X309197Y-182636D01*
X310022Y-181366D01*
X310114D01*
X310250Y-181393D01*
X310250Y-181393D01*
X324754D01*
X325256Y-182144D01*
X326744Y-183139D01*
X328500Y-183488D01*
X333500D01*
X333717Y-183445D01*
X334213Y-184641D01*
X333930Y-184830D01*
X332797Y-186525D01*
X332400Y-188525D01*
Y-189900D01*
X344750D01*
Y-183300D01*
X337625D01*
X337164Y-183391D01*
X336669Y-182195D01*
X336744Y-182144D01*
X337739Y-180656D01*
X338088Y-178900D01*
Y-173900D01*
X337739Y-172144D01*
X336744Y-170656D01*
X336668Y-170605D01*
X337164Y-169409D01*
X337625Y-169500D01*
X344750D01*
Y-162900D01*
X332400D01*
Y-164275D01*
X332797Y-166275D01*
X333930Y-167970D01*
X334213Y-168159D01*
X333717Y-169355D01*
X333500Y-169312D01*
X328500D01*
X326744Y-169661D01*
X325256Y-170656D01*
X324553Y-171707D01*
X310250D01*
X310114Y-171734D01*
X308875D01*
X307558Y-171996D01*
X306441Y-172742D01*
X306286Y-172975D01*
X305775Y-173066D01*
X304796Y-172919D01*
X304206Y-172084D01*
X303045Y-171352D01*
X301693Y-171119D01*
X300354Y-171422D01*
X300051Y-171557D01*
X296093D01*
Y-168039D01*
X296215Y-167425D01*
Y-164775D01*
X295957Y-163478D01*
X295222Y-162378D01*
X295127Y-162314D01*
Y-160787D01*
X295583Y-160483D01*
X296428Y-159217D01*
X296725Y-157725D01*
Y-157650D01*
X291250D01*
X285775D01*
Y-157725D01*
X286072Y-159217D01*
X286917Y-160483D01*
X287373Y-160787D01*
Y-162314D01*
X287278Y-162378D01*
X286543Y-163478D01*
X286285Y-164775D01*
Y-167425D01*
X286407Y-168039D01*
Y-171708D01*
X285991Y-171998D01*
X285137Y-172271D01*
X284272Y-171693D01*
X282975Y-171435D01*
X280325D01*
X279711Y-171557D01*
X272276D01*
X271650Y-171432D01*
X268750D01*
X267404Y-171700D01*
X266402Y-172369D01*
X265933Y-172504D01*
X265266D01*
X264798Y-172369D01*
X263796Y-171700D01*
X262450Y-171432D01*
X259550D01*
X258924Y-171557D01*
X251910D01*
X251231Y-170287D01*
X251678Y-169617D01*
X251975Y-168125D01*
Y-168050D01*
X246500D01*
X241025D01*
Y-168125D01*
X241322Y-169617D01*
X241836Y-170387D01*
X241214Y-171657D01*
X239536D01*
X238857Y-170387D01*
X238921Y-170291D01*
X239227Y-168750D01*
Y-168550D01*
X233750D01*
X228273D01*
Y-168750D01*
X228579Y-170291D01*
X229154Y-171152D01*
X228573Y-172422D01*
X221825D01*
X221274Y-171750D01*
X212500D01*
X203981D01*
X204203Y-172866D01*
X204928Y-173950D01*
X204674Y-174329D01*
X204441Y-175500D01*
Y-177500D01*
X204674Y-178671D01*
X204928Y-179050D01*
X204203Y-180134D01*
X203981Y-181250D01*
X212500D01*
X221273D01*
X221825Y-180578D01*
X230024D01*
X230954Y-181200D01*
X232300Y-181468D01*
X235200D01*
X235826Y-181343D01*
X241657D01*
Y-184315D01*
X241627Y-184360D01*
X241390Y-185550D01*
Y-187650D01*
X241627Y-188840D01*
X242301Y-189849D01*
X243310Y-190523D01*
X244038Y-190668D01*
X244647Y-191074D01*
X246500Y-191443D01*
X248353Y-191074D01*
X248962Y-190668D01*
X249690Y-190523D01*
X250699Y-189849D01*
X251373Y-188840D01*
X251610Y-187650D01*
Y-185550D01*
X251373Y-184360D01*
X251343Y-184315D01*
Y-181243D01*
X258924D01*
X259550Y-181368D01*
X262450D01*
X263796Y-181100D01*
X264798Y-180431D01*
X265266Y-180296D01*
X265933D01*
X266402Y-180431D01*
X267404Y-181100D01*
X268750Y-181368D01*
X271650D01*
X272276Y-181243D01*
X279711D01*
X280325Y-181365D01*
X282975D01*
X284272Y-181107D01*
X285237Y-180462D01*
X285846Y-180618D01*
X286507Y-180960D01*
Y-182915D01*
X286377Y-183110D01*
X286140Y-184300D01*
Y-186400D01*
X286377Y-187590D01*
X287051Y-188599D01*
X288060Y-189273D01*
X288788Y-189418D01*
X289397Y-189824D01*
X291250Y-190193D01*
X291350D01*
X293203Y-189824D01*
X293854Y-189390D01*
X294440Y-189273D01*
X295449Y-188599D01*
X296123Y-187590D01*
X296360Y-186400D01*
Y-184300D01*
X296193Y-183462D01*
Y-181243D01*
X298253D01*
X298912Y-181659D01*
X299226Y-182032D01*
X299620Y-182917D01*
X299594Y-182959D01*
X299361Y-184312D01*
X299664Y-185650D01*
X300844Y-188300D01*
X301636Y-189421D01*
X301753Y-189494D01*
X308186Y-203943D01*
Y-207451D01*
X292000D01*
X291938Y-207463D01*
X291875Y-207454D01*
X290405Y-207526D01*
X290221Y-207572D01*
X290032D01*
X287148Y-208146D01*
X286917Y-208242D01*
X286670Y-208291D01*
X283954Y-209416D01*
X283745Y-209556D01*
X283513Y-209652D01*
X281068Y-211285D01*
X280890Y-211463D01*
X280682Y-211602D01*
X278602Y-213682D01*
X278463Y-213890D01*
X278285Y-214068D01*
X276652Y-216513D01*
X276556Y-216745D01*
X276416Y-216954D01*
X275291Y-219670D01*
X275242Y-219916D01*
X275146Y-220148D01*
X274572Y-223032D01*
Y-223221D01*
X274526Y-223405D01*
X274454Y-224875D01*
X274463Y-224938D01*
X274451Y-225000D01*
Y-365000D01*
Y-366226D01*
X273972Y-368632D01*
X273034Y-370898D01*
X271671Y-372937D01*
X269937Y-374671D01*
X267898Y-376034D01*
X265632Y-376973D01*
X263226Y-377451D01*
X-16226D01*
X-18632Y-376973D01*
X-20898Y-376034D01*
X-22937Y-374671D01*
X-24671Y-372937D01*
X-26034Y-370898D01*
X-26972Y-368632D01*
X-27451Y-366226D01*
Y-365000D01*
Y15000D01*
Y16226D01*
X-26972Y18632D01*
X-26034Y20898D01*
X-24671Y22937D01*
X-22937Y24671D01*
X-20898Y26034D01*
X-18632Y26972D01*
X-16226Y27451D01*
X356226D01*
X358632Y26972D01*
D02*
G37*
G36*
X312304Y-195748D02*
X313898Y-198741D01*
X314168Y-199128D01*
X314421Y-199446D01*
X314658Y-199694D01*
X314879Y-199871D01*
X310257Y-203250D01*
X310223Y-203215D01*
X310124Y-203027D01*
X308630Y-199788D01*
X306937Y-196005D01*
X311936Y-194939D01*
X312304Y-195748D01*
D02*
G37*
%LPC*%
G36*
X224500Y18108D02*
X222750D01*
X221975Y17954D01*
X221250Y18098D01*
X220000D01*
Y6000D01*
Y-6098D01*
X221250D01*
X221975Y-5954D01*
X222750Y-6108D01*
X224500D01*
Y6000D01*
Y18108D01*
D02*
G37*
G36*
X179500Y18122D02*
X177000D01*
X174561Y17637D01*
X172494Y16256D01*
X171339Y14527D01*
X170014Y14679D01*
X169960Y14951D01*
X168855Y16605D01*
X167201Y17710D01*
X165250Y18098D01*
X164000D01*
Y6000D01*
Y-6098D01*
X165250D01*
X167201Y-5710D01*
X168855Y-4605D01*
X169960Y-2951D01*
X170014Y-2679D01*
X171339Y-2527D01*
X172494Y-4256D01*
X174561Y-5637D01*
X177000Y-6122D01*
X179500D01*
Y6000D01*
Y18122D01*
D02*
G37*
G36*
X228750Y18108D02*
X227000D01*
Y7250D01*
X234358D01*
Y12500D01*
X233931Y14646D01*
X232715Y16465D01*
X230896Y17681D01*
X228750Y18108D01*
D02*
G37*
G36*
X154500D02*
X152750D01*
X150604Y17681D01*
X148785Y16465D01*
X147569Y14646D01*
X147142Y12500D01*
Y7250D01*
X154500D01*
Y18108D01*
D02*
G37*
G36*
X158750D02*
X157000D01*
Y6000D01*
Y-6108D01*
X158750D01*
X159524Y-5954D01*
X160250Y-6098D01*
X161500D01*
Y6000D01*
Y18098D01*
X160250D01*
X159524Y17954D01*
X158750Y18108D01*
D02*
G37*
G36*
X204500Y18122D02*
X202000D01*
Y6000D01*
Y-6122D01*
X204500D01*
X206939Y-5637D01*
X209006Y-4256D01*
X210161Y-2528D01*
X211486Y-2679D01*
X211540Y-2951D01*
X212645Y-4605D01*
X214299Y-5710D01*
X216250Y-6098D01*
X217500D01*
Y6000D01*
Y18098D01*
X216250D01*
X214299Y17710D01*
X212645Y16605D01*
X211540Y14951D01*
X211486Y14679D01*
X210161Y14527D01*
X209006Y16256D01*
X206939Y17637D01*
X204500Y18122D01*
D02*
G37*
G36*
X234358Y4750D02*
X227000D01*
Y-6108D01*
X228750D01*
X230896Y-5681D01*
X232715Y-4465D01*
X233931Y-2646D01*
X234358Y-500D01*
Y4750D01*
D02*
G37*
G36*
X154500Y4750D02*
X147142D01*
Y-500D01*
X147569Y-2646D01*
X148785Y-4465D01*
X150604Y-5681D01*
X152750Y-6108D01*
X154500D01*
Y4750D01*
D02*
G37*
G36*
X184500Y18122D02*
X182000D01*
Y6000D01*
Y-6122D01*
X184500D01*
X186939Y-5637D01*
X189006Y-4256D01*
X190024Y-2732D01*
X191476Y-2732D01*
X192494Y-4256D01*
X194561Y-5637D01*
X197000Y-6122D01*
X199500D01*
Y6000D01*
Y18122D01*
X197000D01*
X194561Y17637D01*
X192494Y16256D01*
X191476Y14732D01*
X190024Y14732D01*
X189006Y16256D01*
X186939Y17637D01*
X184500Y18122D01*
D02*
G37*
G36*
X214500Y-11130D02*
X212125D01*
X209735Y-11605D01*
X208155Y-12661D01*
X206913Y-13087D01*
X205921Y-12424D01*
X204750Y-12191D01*
X202750D01*
X201579Y-12424D01*
X200587Y-13087D01*
X199477Y-12462D01*
X199421Y-12424D01*
X198250Y-12191D01*
X196250D01*
X195079Y-12424D01*
X194087Y-13087D01*
X192977Y-12462D01*
X192920Y-12424D01*
X191750Y-12191D01*
X189750D01*
X188579Y-12424D01*
X187882Y-12890D01*
X187773Y-12727D01*
X186616Y-11953D01*
X185500Y-11731D01*
Y-21001D01*
Y-30269D01*
X185911Y-30187D01*
X187181Y-31080D01*
Y-66000D01*
X187202Y-66105D01*
X186826Y-67999D01*
X185693Y-69693D01*
X183999Y-70826D01*
X183209Y-70983D01*
X182000Y-71129D01*
Y-71129D01*
X178345Y-71610D01*
X174940Y-73021D01*
X172015Y-75265D01*
X169771Y-78190D01*
X169180Y-79616D01*
X167682Y-79914D01*
X161419Y-73651D01*
X160096Y-72767D01*
X158535Y-72457D01*
X158535Y-72457D01*
X95575D01*
X86768Y-63650D01*
X87586Y-61676D01*
X87938Y-59000D01*
X87586Y-56324D01*
X86553Y-53831D01*
X84910Y-51690D01*
X82769Y-50047D01*
X80276Y-49014D01*
X77600Y-48662D01*
X74924Y-49014D01*
X72431Y-50047D01*
X70290Y-51690D01*
X68647Y-53831D01*
X67614Y-56324D01*
X67262Y-59000D01*
X67614Y-61676D01*
X68647Y-64169D01*
X70290Y-66310D01*
X72431Y-67953D01*
X74924Y-68986D01*
X77600Y-69338D01*
X80276Y-68986D01*
X80483Y-68900D01*
X88866Y-77284D01*
X88380Y-78457D01*
X76175D01*
X62283Y-64566D01*
X62570Y-63125D01*
Y-54875D01*
X62095Y-52485D01*
X60741Y-50459D01*
X58715Y-49105D01*
X56325Y-48630D01*
X48075D01*
X45685Y-49105D01*
X43659Y-50459D01*
X42305Y-52485D01*
X41830Y-54875D01*
Y-63125D01*
X42305Y-65515D01*
X43659Y-67541D01*
X45685Y-68895D01*
X48075Y-69370D01*
X55552D01*
X71602Y-85419D01*
X72925Y-86303D01*
X74485Y-86614D01*
X74486Y-86614D01*
X149917D01*
X151544Y-88240D01*
X151324Y-89466D01*
X150232Y-90049D01*
X149670Y-89674D01*
X148500Y-89441D01*
X146500D01*
X145329Y-89674D01*
X144500Y-90228D01*
X143671Y-89674D01*
X142500Y-89441D01*
X140500D01*
X139329Y-89674D01*
X138500Y-90228D01*
X137670Y-89674D01*
X136500Y-89441D01*
X134500D01*
X133329Y-89674D01*
X132500Y-90228D01*
X131671Y-89674D01*
X130500Y-89441D01*
X128500D01*
X127329Y-89674D01*
X126500Y-90228D01*
X125670Y-89674D01*
X124500Y-89441D01*
X122500D01*
X121329Y-89674D01*
X120500Y-90228D01*
X119670Y-89674D01*
X118500Y-89441D01*
X116500D01*
X115329Y-89674D01*
X114500Y-90228D01*
X113671Y-89674D01*
X112500Y-89441D01*
X110500D01*
X109330Y-89674D01*
X108500Y-90228D01*
X107670Y-89674D01*
X106500Y-89441D01*
X104500D01*
X103329Y-89674D01*
X102337Y-90337D01*
X101674Y-91329D01*
X101441Y-92500D01*
Y-102500D01*
X101674Y-103671D01*
X102337Y-104663D01*
X103329Y-105326D01*
X104500Y-105559D01*
X106500D01*
X107670Y-105326D01*
X108500Y-104772D01*
X109330Y-105326D01*
X110500Y-105559D01*
X111062Y-106243D01*
X110886Y-107127D01*
X111235Y-108882D01*
X112230Y-110371D01*
X113718Y-111365D01*
X115474Y-111715D01*
X117230Y-111365D01*
X118719Y-110371D01*
X119713Y-108882D01*
X119715Y-108874D01*
X121010D01*
X121011Y-108882D01*
X122006Y-110371D01*
X123494Y-111365D01*
X125250Y-111715D01*
X127006Y-111365D01*
X128494Y-110371D01*
X129489Y-108882D01*
X129838Y-107127D01*
X129716Y-106514D01*
X130500Y-105559D01*
X131671Y-105326D01*
X132500Y-104772D01*
X133329Y-105326D01*
X134500Y-105559D01*
X136500D01*
X137670Y-105326D01*
X138500Y-104772D01*
X139329Y-105326D01*
X140500Y-105559D01*
X142500D01*
X143671Y-105326D01*
X144500Y-104772D01*
X145329Y-105326D01*
X146500Y-105559D01*
X148500D01*
X149670Y-105326D01*
X150500Y-104772D01*
X151329Y-105326D01*
X152500Y-105559D01*
X154500D01*
X155670Y-105326D01*
X156500Y-104772D01*
X157330Y-105326D01*
X158500Y-105559D01*
X160500D01*
X161670Y-105326D01*
X162500Y-104772D01*
X163329Y-105326D01*
X164500Y-105559D01*
X166500D01*
X167670Y-105326D01*
X168500Y-104772D01*
X169329Y-105326D01*
X170500Y-105559D01*
X172500D01*
X173671Y-105326D01*
X174500Y-104772D01*
X175169Y-105219D01*
X176011Y-106244D01*
X175662Y-108000D01*
X176011Y-109756D01*
X177006Y-111244D01*
X178494Y-112239D01*
X180250Y-112588D01*
X182006Y-112239D01*
X183494Y-111244D01*
X184294Y-110047D01*
X184672Y-109957D01*
X185328D01*
X185706Y-110047D01*
X186506Y-111244D01*
X187994Y-112239D01*
X189750Y-112588D01*
X191506Y-112239D01*
X192994Y-111244D01*
X193989Y-109756D01*
X194338Y-108000D01*
X194094Y-106773D01*
X194182Y-106510D01*
X194828Y-105702D01*
X195049Y-105559D01*
X196500D01*
X197670Y-105326D01*
X198663Y-104663D01*
X199326Y-103671D01*
X199559Y-102500D01*
Y-92500D01*
X199326Y-91329D01*
X198663Y-90337D01*
X197670Y-89674D01*
X196500Y-89441D01*
X194500D01*
X193329Y-89674D01*
X192500Y-90228D01*
X191670Y-89674D01*
X190500Y-89441D01*
X188500D01*
X187329Y-89674D01*
X186500Y-90228D01*
X185671Y-89674D01*
X184500Y-89441D01*
X182747D01*
X182198Y-88895D01*
X181856Y-88275D01*
X182060Y-87782D01*
X183242Y-86242D01*
X184782Y-85060D01*
X186575Y-84317D01*
X187279Y-84224D01*
X188500Y-84106D01*
Y-84106D01*
X191698Y-83685D01*
X194678Y-82450D01*
X197237Y-80487D01*
X199200Y-77928D01*
X200435Y-74948D01*
X200856Y-71750D01*
X200819D01*
Y-37137D01*
X202089Y-36706D01*
X203263Y-38237D01*
X205822Y-40200D01*
X208802Y-41435D01*
X212000Y-41856D01*
Y-41828D01*
X277326D01*
X277411Y-41811D01*
X280322Y-42098D01*
X283204Y-42972D01*
X285859Y-44391D01*
X288186Y-46301D01*
X290097Y-48629D01*
X291516Y-51284D01*
X291834Y-52334D01*
X291670Y-53162D01*
Y-61162D01*
X291941Y-62527D01*
X292715Y-63685D01*
X293872Y-64459D01*
X295238Y-64731D01*
X298238D01*
X299604Y-64459D01*
X300761Y-63685D01*
X301535Y-62527D01*
X301807Y-61162D01*
Y-58900D01*
X307182D01*
X307463Y-59300D01*
X307745Y-60170D01*
X307060Y-61195D01*
X306763Y-62687D01*
Y-62762D01*
X312238D01*
X317713D01*
Y-62687D01*
X317416Y-61195D01*
X316571Y-59929D01*
X316115Y-59625D01*
Y-58098D01*
X316210Y-58034D01*
X316945Y-56934D01*
X317203Y-55637D01*
Y-52987D01*
X316945Y-51690D01*
X316210Y-50590D01*
X315110Y-49855D01*
X313813Y-49597D01*
X310663D01*
X310025Y-49724D01*
X299535D01*
X299061Y-48159D01*
X296887Y-44092D01*
X293961Y-40527D01*
X290396Y-37601D01*
X286329Y-35427D01*
X281916Y-34089D01*
X277326Y-33637D01*
Y-33672D01*
X212000D01*
X211919Y-33688D01*
X210391Y-33384D01*
X209028Y-32473D01*
X208632Y-31881D01*
X208737Y-31255D01*
X208988Y-31038D01*
X210156Y-30478D01*
X212125Y-30870D01*
X214500D01*
Y-21001D01*
Y-11130D01*
D02*
G37*
G36*
X164500Y-11130D02*
X162125D01*
X159735Y-11605D01*
X157709Y-12959D01*
X156355Y-14985D01*
X155880Y-17375D01*
Y-19750D01*
X164500D01*
Y-11130D01*
D02*
G37*
G36*
X219375Y-11130D02*
X217000D01*
Y-19751D01*
X225620D01*
Y-17375D01*
X225145Y-14985D01*
X223791Y-12959D01*
X221765Y-11605D01*
X219375Y-11130D01*
D02*
G37*
G36*
X179000Y-11731D02*
Y-21001D01*
Y-30269D01*
X180116Y-30047D01*
X181000Y-29456D01*
X181884Y-30047D01*
X183000Y-30269D01*
Y-21001D01*
Y-11731D01*
X181884Y-11953D01*
X181000Y-12544D01*
X180116Y-11953D01*
X179000Y-11731D01*
D02*
G37*
G36*
X169375Y-11130D02*
X167000D01*
Y-21000D01*
Y-30870D01*
X169375D01*
X171765Y-30395D01*
X172929Y-29617D01*
X174227Y-29273D01*
X175384Y-30047D01*
X176500Y-30269D01*
Y-21001D01*
Y-11731D01*
X175384Y-11953D01*
X174227Y-12727D01*
X172929Y-12383D01*
X171765Y-11605D01*
X169375Y-11130D01*
D02*
G37*
G36*
X225620Y-22251D02*
X217000D01*
Y-30870D01*
X219375D01*
X221765Y-30395D01*
X223791Y-29041D01*
X225145Y-27015D01*
X225620Y-24625D01*
Y-22251D01*
D02*
G37*
G36*
X164500Y-22250D02*
X155880D01*
Y-24625D01*
X156355Y-27015D01*
X157709Y-29041D01*
X159735Y-30395D01*
X162125Y-30870D01*
X164500D01*
Y-22250D01*
D02*
G37*
G36*
X279238Y-49593D02*
X276238D01*
X275373Y-49766D01*
X275138Y-49719D01*
X264314D01*
X263688Y-49594D01*
X260788D01*
X259442Y-49862D01*
X258301Y-50625D01*
X257538Y-51766D01*
X257271Y-53112D01*
Y-56012D01*
X257538Y-57358D01*
X258207Y-58359D01*
X258342Y-58828D01*
Y-59495D01*
X258207Y-59964D01*
X257538Y-60966D01*
X257271Y-62312D01*
Y-65212D01*
X257538Y-66558D01*
X258301Y-67699D01*
X259442Y-68462D01*
X260570Y-68686D01*
X262406Y-70255D01*
X266435Y-72723D01*
X270800Y-74531D01*
X275394Y-75634D01*
X280101Y-76005D01*
X280103Y-76005D01*
X284651Y-76005D01*
X284776Y-77275D01*
X284177Y-77394D01*
X282988Y-78189D01*
X281761Y-78639D01*
X280604Y-77865D01*
X279238Y-77593D01*
X276238D01*
X274872Y-77865D01*
X273715Y-78639D01*
X272941Y-79796D01*
X272670Y-81162D01*
Y-82919D01*
X267423D01*
X266744Y-81649D01*
X266938Y-81358D01*
X267206Y-80012D01*
Y-77112D01*
X266938Y-75766D01*
X266175Y-74625D01*
X265034Y-73862D01*
X263688Y-73594D01*
X260788D01*
X260162Y-73719D01*
X251989Y-73719D01*
X251426Y-73607D01*
X243551D01*
X242453Y-73825D01*
X241523Y-74447D01*
X240901Y-75377D01*
X240683Y-76474D01*
Y-81349D01*
X240901Y-82447D01*
X241523Y-83377D01*
X242453Y-83999D01*
X243551Y-84217D01*
X251426D01*
X252523Y-83999D01*
X253412Y-83405D01*
X257054Y-83405D01*
X257733Y-84675D01*
X257538Y-84966D01*
X257271Y-86312D01*
Y-89212D01*
X257538Y-90558D01*
X258301Y-91699D01*
X259442Y-92462D01*
X260788Y-92730D01*
X263688D01*
X264314Y-92605D01*
X275138D01*
X275373Y-92558D01*
X276238Y-92731D01*
X279238D01*
X280604Y-92459D01*
X281761Y-91685D01*
X282988Y-92135D01*
X284177Y-92930D01*
X285738Y-93240D01*
X285988D01*
Y-85162D01*
X288488D01*
Y-93240D01*
X288738D01*
X290299Y-92930D01*
X290880Y-92542D01*
X292150Y-93220D01*
Y-103007D01*
X291448Y-103583D01*
X285498D01*
Y-118348D01*
Y-133112D01*
X291448D01*
X292735Y-132856D01*
X293827Y-132127D01*
X294556Y-131035D01*
X294568Y-130974D01*
X294973Y-129760D01*
X296848D01*
Y-125848D01*
X298098D01*
Y-124598D01*
X304345D01*
X304214Y-123934D01*
X303521Y-122898D01*
X303742Y-122566D01*
X303950Y-121523D01*
Y-120386D01*
X307158D01*
X307363Y-120651D01*
X307721Y-121656D01*
X307070Y-122630D01*
X306773Y-124123D01*
Y-124198D01*
X312248D01*
X317723D01*
Y-124123D01*
X317426Y-122630D01*
X316580Y-121365D01*
X316125Y-121061D01*
Y-119533D01*
X316220Y-119470D01*
X316955Y-118370D01*
X317213Y-117073D01*
Y-114423D01*
X316955Y-113125D01*
X316220Y-112025D01*
X315120Y-111291D01*
X313823Y-111032D01*
X310673D01*
X309783Y-111209D01*
X303950D01*
Y-110173D01*
X303742Y-109129D01*
X303151Y-108244D01*
X302266Y-107653D01*
X301336Y-107468D01*
Y-103835D01*
X301326Y-103786D01*
Y-91013D01*
X324726D01*
X324855Y-91665D01*
X326209Y-93691D01*
X328235Y-95045D01*
X330625Y-95520D01*
X338875D01*
X341265Y-95045D01*
X343291Y-93691D01*
X344645Y-91665D01*
X345120Y-89275D01*
Y-81025D01*
X344645Y-78635D01*
X343291Y-76609D01*
X341265Y-75255D01*
X338875Y-74780D01*
X330625D01*
X328235Y-75255D01*
X326209Y-76609D01*
X324855Y-78635D01*
X324726Y-79287D01*
X301430D01*
X301121Y-76942D01*
X299685Y-73475D01*
X297401Y-70499D01*
X294425Y-68215D01*
X290958Y-66779D01*
X287238Y-66289D01*
Y-66289D01*
X285968Y-66319D01*
X281373Y-66319D01*
X280103Y-66319D01*
X278857Y-66261D01*
X277297Y-66107D01*
X277115Y-65870D01*
X277676Y-64731D01*
X279238D01*
X280604Y-64459D01*
X281761Y-63685D01*
X282535Y-62527D01*
X282807Y-61162D01*
Y-53162D01*
X282535Y-51796D01*
X281761Y-50639D01*
X280604Y-49865D01*
X279238Y-49593D01*
D02*
G37*
G36*
X129650Y-48322D02*
Y-57750D01*
X139078D01*
X138873Y-56194D01*
X137790Y-53579D01*
X136067Y-51333D01*
X133821Y-49610D01*
X131206Y-48527D01*
X129650Y-48322D01*
D02*
G37*
G36*
X127150D02*
X125594Y-48527D01*
X122979Y-49610D01*
X120733Y-51333D01*
X119010Y-53579D01*
X117927Y-56194D01*
X117722Y-57750D01*
X127150D01*
Y-48322D01*
D02*
G37*
G36*
X336000Y-49072D02*
Y-58500D01*
X345428D01*
X345223Y-56944D01*
X344140Y-54329D01*
X342417Y-52083D01*
X340171Y-50360D01*
X337556Y-49277D01*
X336000Y-49072D01*
D02*
G37*
G36*
X333500Y-49072D02*
X331944Y-49277D01*
X329329Y-50360D01*
X327083Y-52083D01*
X325360Y-54329D01*
X324277Y-56944D01*
X324072Y-58500D01*
X333500D01*
Y-49072D01*
D02*
G37*
G36*
X251426Y-58097D02*
X248738D01*
Y-62662D01*
X254803D01*
Y-61474D01*
X254546Y-60182D01*
X253814Y-59086D01*
X252718Y-58354D01*
X251426Y-58097D01*
D02*
G37*
G36*
X246238D02*
X243551D01*
X242258Y-58354D01*
X241162Y-59086D01*
X240430Y-60182D01*
X240173Y-61474D01*
Y-62662D01*
X246238D01*
Y-58097D01*
D02*
G37*
G36*
X317713Y-65262D02*
X313488D01*
Y-69237D01*
X313813D01*
X315306Y-68940D01*
X316571Y-68095D01*
X317416Y-66829D01*
X317713Y-65337D01*
Y-65262D01*
D02*
G37*
G36*
X310988D02*
X306763D01*
Y-65337D01*
X307060Y-66829D01*
X307906Y-68095D01*
X309171Y-68940D01*
X310663Y-69237D01*
X310988D01*
Y-65262D01*
D02*
G37*
G36*
X-12400Y-48661D02*
X-15076Y-49014D01*
X-17569Y-50047D01*
X-19710Y-51690D01*
X-21353Y-53831D01*
X-22386Y-56324D01*
X-22738Y-59000D01*
X-22386Y-61676D01*
X-21353Y-64169D01*
X-19710Y-66310D01*
X-17569Y-67953D01*
X-15076Y-68986D01*
X-12400Y-69338D01*
X-9724Y-68986D01*
X-7231Y-67953D01*
X-5090Y-66310D01*
X-3447Y-64169D01*
X-2414Y-61676D01*
X-2062Y-59000D01*
X-2414Y-56324D01*
X-3447Y-53831D01*
X-5090Y-51690D01*
X-7231Y-50047D01*
X-9724Y-49014D01*
X-12400Y-48661D01*
D02*
G37*
G36*
X103000Y-48662D02*
X100324Y-49014D01*
X97831Y-50047D01*
X95690Y-51690D01*
X94047Y-53831D01*
X93014Y-56324D01*
X92662Y-59000D01*
X93014Y-61676D01*
X94047Y-64169D01*
X95690Y-66310D01*
X97831Y-67953D01*
X100324Y-68986D01*
X103000Y-69338D01*
X105676Y-68986D01*
X108169Y-67953D01*
X110310Y-66310D01*
X111953Y-64169D01*
X112986Y-61676D01*
X113338Y-59000D01*
X112986Y-56324D01*
X111953Y-53831D01*
X110310Y-51690D01*
X108169Y-50047D01*
X105676Y-49014D01*
X103000Y-48662D01*
D02*
G37*
G36*
X17125Y-48630D02*
X8875D01*
X6485Y-49105D01*
X4459Y-50459D01*
X3105Y-52485D01*
X2630Y-54875D01*
Y-63125D01*
X3105Y-65515D01*
X4459Y-67541D01*
X6485Y-68895D01*
X8875Y-69370D01*
X17125D01*
X19515Y-68895D01*
X21541Y-67541D01*
X22895Y-65515D01*
X23370Y-63125D01*
Y-54875D01*
X22895Y-52485D01*
X21541Y-50459D01*
X19515Y-49105D01*
X17125Y-48630D01*
D02*
G37*
G36*
X139078Y-60250D02*
X129650D01*
Y-69678D01*
X131206Y-69473D01*
X133821Y-68390D01*
X136067Y-66667D01*
X137790Y-64421D01*
X138873Y-61806D01*
X139078Y-60250D01*
D02*
G37*
G36*
X127150D02*
X117722D01*
X117927Y-61806D01*
X119010Y-64421D01*
X120733Y-66667D01*
X122979Y-68390D01*
X125594Y-69473D01*
X127150Y-69678D01*
Y-60250D01*
D02*
G37*
G36*
X254803Y-65162D02*
X248738D01*
Y-69727D01*
X251426D01*
X252718Y-69470D01*
X253814Y-68738D01*
X254546Y-67642D01*
X254803Y-66350D01*
Y-65162D01*
D02*
G37*
G36*
X246238D02*
X240173D01*
Y-66350D01*
X240430Y-67642D01*
X241162Y-68738D01*
X242258Y-69470D01*
X243551Y-69727D01*
X246238D01*
Y-65162D01*
D02*
G37*
G36*
X345428Y-61000D02*
X336000D01*
Y-70428D01*
X337556Y-70223D01*
X340171Y-69140D01*
X342417Y-67417D01*
X344140Y-65171D01*
X345223Y-62556D01*
X345428Y-61000D01*
D02*
G37*
G36*
X333500D02*
X324072D01*
X324277Y-62556D01*
X325360Y-65171D01*
X327083Y-67417D01*
X329329Y-69140D01*
X331944Y-70223D01*
X333500Y-70428D01*
Y-61000D01*
D02*
G37*
G36*
X93500Y-105932D02*
X89750D01*
Y-109250D01*
X97019D01*
X96797Y-108134D01*
X96023Y-106977D01*
X94866Y-106203D01*
X93500Y-105932D01*
D02*
G37*
G36*
X87250D02*
X83500D01*
X82134Y-106203D01*
X80977Y-106977D01*
X80203Y-108134D01*
X79981Y-109250D01*
X87250D01*
Y-105932D01*
D02*
G37*
G36*
X282998Y-103583D02*
X277048D01*
X275760Y-103839D01*
X274669Y-104569D01*
X273939Y-105660D01*
X273829Y-106211D01*
X273523Y-107445D01*
X267273D01*
X266229Y-107653D01*
X265344Y-108244D01*
X264753Y-109129D01*
X264545Y-110173D01*
Y-111523D01*
X263779Y-112534D01*
X261215D01*
Y-111798D01*
X260947Y-110451D01*
X260185Y-109310D01*
X259044Y-108548D01*
X257698Y-108280D01*
X254798D01*
X253451Y-108548D01*
X253170Y-108736D01*
X244830D01*
X244575Y-108685D01*
X241425D01*
X240787Y-108812D01*
X230964D01*
X230325Y-108685D01*
X227175D01*
X226536Y-108812D01*
X220422D01*
X220326Y-108329D01*
X219663Y-107337D01*
X218671Y-106674D01*
X217500Y-106441D01*
X207500D01*
X206329Y-106674D01*
X205337Y-107337D01*
X204674Y-108329D01*
X204441Y-109500D01*
Y-111500D01*
X204461Y-111598D01*
Y-115402D01*
X204441Y-115500D01*
Y-117500D01*
X204674Y-118671D01*
X204928Y-119050D01*
X204203Y-120134D01*
X203981Y-121250D01*
X212500D01*
X221019D01*
X220797Y-120134D01*
X220116Y-119115D01*
X220267Y-118758D01*
X220326Y-118671D01*
X220345Y-118577D01*
X220595Y-117988D01*
X223694D01*
X223976Y-118389D01*
X224256Y-119258D01*
X223572Y-120283D01*
X223275Y-121775D01*
Y-121850D01*
X228750D01*
X234225D01*
Y-121775D01*
X233928Y-120283D01*
X233243Y-119258D01*
X233524Y-118389D01*
X233806Y-117988D01*
X237944D01*
X238225Y-118388D01*
X238506Y-119258D01*
X237822Y-120283D01*
X237525Y-121775D01*
Y-121850D01*
X243000D01*
X248475D01*
Y-121775D01*
X248178Y-120283D01*
X247443Y-119182D01*
X247630Y-118497D01*
X247964Y-117912D01*
X251183D01*
X251861Y-119182D01*
X251548Y-119651D01*
X251280Y-120998D01*
Y-123898D01*
X251548Y-125244D01*
X251660Y-125411D01*
Y-130284D01*
X251548Y-130452D01*
X251280Y-131798D01*
Y-134698D01*
X251548Y-136044D01*
X252310Y-137185D01*
X251801Y-138372D01*
X251077Y-139456D01*
X250770Y-140998D01*
Y-141197D01*
X256247D01*
X261725D01*
Y-140998D01*
X261418Y-139456D01*
X260694Y-138372D01*
X260185Y-137185D01*
X260947Y-136044D01*
X261215Y-134698D01*
Y-131798D01*
X260947Y-130452D01*
X260836Y-130284D01*
Y-125411D01*
X260947Y-125244D01*
X261163Y-124161D01*
X263236D01*
X263593Y-124597D01*
X270398D01*
Y-125847D01*
X271648D01*
Y-129760D01*
X273523D01*
X273927Y-130974D01*
X273939Y-131035D01*
X274669Y-132127D01*
X275760Y-132856D01*
X277048Y-133112D01*
X282998D01*
Y-118348D01*
Y-103583D01*
D02*
G37*
G36*
X97019Y-111750D02*
X88500D01*
X79981D01*
X80203Y-112866D01*
X80627Y-113500D01*
X80203Y-114134D01*
X79981Y-115250D01*
X88500D01*
X97019D01*
X96797Y-114134D01*
X96373Y-113500D01*
X96797Y-112866D01*
X97019Y-111750D01*
D02*
G37*
G36*
Y-117750D02*
X88500D01*
X79981D01*
X80203Y-118866D01*
X80627Y-119500D01*
X80203Y-120134D01*
X79981Y-121250D01*
X88500D01*
X97019D01*
X96797Y-120134D01*
X96373Y-119500D01*
X96797Y-118866D01*
X97019Y-117750D01*
D02*
G37*
G36*
X-8125Y-81433D02*
X-16075D01*
X-18406Y-81897D01*
X-20383Y-83217D01*
X-21703Y-85194D01*
X-22167Y-87525D01*
Y-95475D01*
X-21703Y-97806D01*
X-20383Y-99783D01*
X-18406Y-101103D01*
X-16075Y-101567D01*
X-8151D01*
X-1884Y-107834D01*
X-1884Y-107834D01*
X-561Y-108718D01*
X1000Y-109028D01*
X1000Y-109028D01*
X5200D01*
X5824Y-110298D01*
X4609Y-111882D01*
X3606Y-114303D01*
X3264Y-116900D01*
X3606Y-119497D01*
X4609Y-121918D01*
X6204Y-123996D01*
X7514Y-125002D01*
X7083Y-126272D01*
X2689D01*
X-2898Y-120684D01*
X-2406Y-119497D01*
X-2064Y-116900D01*
X-2406Y-114303D01*
X-3409Y-111882D01*
X-5004Y-109804D01*
X-7082Y-108209D01*
X-9503Y-107206D01*
X-12100Y-106864D01*
X-14698Y-107206D01*
X-17118Y-108209D01*
X-19196Y-109804D01*
X-20791Y-111882D01*
X-21794Y-114303D01*
X-22136Y-116900D01*
X-21794Y-119497D01*
X-20791Y-121918D01*
X-19196Y-123996D01*
X-17118Y-125591D01*
X-14698Y-126594D01*
X-12100Y-126936D01*
X-9503Y-126594D01*
X-8810Y-126307D01*
X-1884Y-133234D01*
X-561Y-134118D01*
X1000Y-134428D01*
X5200D01*
X5824Y-135698D01*
X4609Y-137282D01*
X3606Y-139703D01*
X3264Y-142300D01*
X3606Y-144897D01*
X4609Y-147318D01*
X5824Y-148902D01*
X5200Y-150172D01*
X1189D01*
X-2898Y-146084D01*
X-2406Y-144897D01*
X-2064Y-142300D01*
X-2406Y-139703D01*
X-3409Y-137282D01*
X-5004Y-135204D01*
X-7082Y-133609D01*
X-9503Y-132606D01*
X-12100Y-132264D01*
X-14698Y-132606D01*
X-17118Y-133609D01*
X-19196Y-135204D01*
X-20791Y-137282D01*
X-21794Y-139703D01*
X-22136Y-142300D01*
X-21794Y-144897D01*
X-20791Y-147318D01*
X-19196Y-149396D01*
X-17118Y-150991D01*
X-14698Y-151994D01*
X-12100Y-152336D01*
X-9503Y-151994D01*
X-8810Y-151707D01*
X-3384Y-157134D01*
X-2061Y-158018D01*
X-500Y-158328D01*
X-500Y-158328D01*
X7082D01*
X7514Y-159598D01*
X6204Y-160604D01*
X4609Y-162682D01*
X3606Y-165103D01*
X3264Y-167700D01*
X3606Y-170297D01*
X4609Y-172718D01*
X5824Y-174302D01*
X5200Y-175572D01*
X1189D01*
X-2898Y-171485D01*
X-2406Y-170297D01*
X-2064Y-167700D01*
X-2406Y-165103D01*
X-3409Y-162682D01*
X-5004Y-160604D01*
X-7082Y-159009D01*
X-9503Y-158006D01*
X-12100Y-157664D01*
X-14698Y-158006D01*
X-17118Y-159009D01*
X-19196Y-160604D01*
X-20791Y-162682D01*
X-21794Y-165103D01*
X-22136Y-167700D01*
X-21794Y-170297D01*
X-20791Y-172718D01*
X-19196Y-174796D01*
X-17118Y-176391D01*
X-14698Y-177394D01*
X-12100Y-177736D01*
X-9503Y-177394D01*
X-8810Y-177107D01*
X-3384Y-182534D01*
X-2061Y-183418D01*
X-500Y-183728D01*
X-500Y-183728D01*
X7083D01*
X7514Y-184998D01*
X6204Y-186004D01*
X4609Y-188082D01*
X3606Y-190502D01*
X3264Y-193100D01*
X3606Y-195697D01*
X4609Y-198118D01*
X5824Y-199702D01*
X5200Y-200972D01*
X1189D01*
X-2898Y-196884D01*
X-2406Y-195697D01*
X-2064Y-193100D01*
X-2406Y-190502D01*
X-3409Y-188082D01*
X-5004Y-186004D01*
X-7082Y-184409D01*
X-9503Y-183406D01*
X-12100Y-183064D01*
X-14698Y-183406D01*
X-17118Y-184409D01*
X-19196Y-186004D01*
X-20791Y-188082D01*
X-21794Y-190502D01*
X-22136Y-193100D01*
X-21794Y-195697D01*
X-20791Y-198118D01*
X-19196Y-200196D01*
X-17118Y-201791D01*
X-14698Y-202794D01*
X-12100Y-203136D01*
X-9503Y-202794D01*
X-8810Y-202507D01*
X-3384Y-207934D01*
X-2061Y-208818D01*
X-500Y-209128D01*
X-500Y-209128D01*
X7082D01*
X7514Y-210398D01*
X6204Y-211404D01*
X4609Y-213482D01*
X3606Y-215903D01*
X3264Y-218500D01*
X3606Y-221098D01*
X4609Y-223518D01*
X6204Y-225596D01*
X8282Y-227191D01*
X10703Y-228194D01*
X13300Y-228536D01*
X15897Y-228194D01*
X18318Y-227191D01*
X20396Y-225596D01*
X21991Y-223518D01*
X22994Y-221098D01*
X23336Y-218500D01*
X22994Y-215903D01*
X21991Y-213482D01*
X20396Y-211404D01*
X19038Y-210362D01*
X19030Y-210250D01*
X19401Y-209039D01*
X20511Y-208818D01*
X21834Y-207934D01*
X43189Y-186578D01*
X79175D01*
X79726Y-187250D01*
X88500D01*
Y-188500D01*
X89750D01*
Y-193439D01*
X90082Y-194242D01*
X44329Y-239995D01*
X44017D01*
X43976Y-239968D01*
X42513Y-239677D01*
X39013D01*
X37550Y-239968D01*
X36309Y-240796D01*
X35480Y-242037D01*
X35189Y-243500D01*
Y-275000D01*
X35480Y-276463D01*
X36309Y-277704D01*
X37449Y-278465D01*
Y-326035D01*
X36309Y-326796D01*
X35480Y-328037D01*
X35189Y-329500D01*
Y-361000D01*
X35480Y-362463D01*
X36309Y-363703D01*
X37549Y-364532D01*
X39013Y-364823D01*
X42513D01*
X43976Y-364532D01*
X45216Y-363703D01*
X46045Y-362463D01*
X46336Y-361000D01*
Y-329500D01*
X46045Y-328037D01*
X45216Y-326796D01*
X44076Y-326035D01*
Y-278465D01*
X45216Y-277704D01*
X46045Y-276463D01*
X46336Y-275000D01*
Y-246496D01*
X46970Y-246370D01*
X48045Y-245652D01*
X100093Y-193603D01*
X100811Y-192528D01*
X101064Y-191260D01*
Y-179740D01*
X100811Y-178472D01*
X100093Y-177397D01*
X97604Y-174907D01*
X96529Y-174189D01*
X96749Y-172938D01*
X96797Y-172866D01*
X97019Y-171750D01*
X88500D01*
X79981D01*
X80203Y-172866D01*
X80928Y-173950D01*
X80674Y-174329D01*
X80441Y-175500D01*
Y-177500D01*
X79685Y-178422D01*
X41500D01*
X39939Y-178732D01*
X38616Y-179616D01*
X38616Y-179616D01*
X24460Y-193772D01*
X23321Y-193210D01*
X23336Y-193100D01*
X22994Y-190502D01*
X21991Y-188082D01*
X20396Y-186004D01*
X18940Y-184886D01*
X19257Y-183528D01*
X19811Y-183418D01*
X21134Y-182534D01*
X29634Y-174034D01*
X29634Y-174034D01*
X30518Y-172710D01*
X30828Y-171150D01*
X30828Y-171150D01*
Y-155925D01*
X36175Y-150578D01*
X79175D01*
X79726Y-151250D01*
X88500D01*
X97019D01*
X96797Y-150134D01*
X96072Y-149050D01*
X96326Y-148671D01*
X96559Y-147500D01*
Y-145500D01*
X96326Y-144330D01*
X95772Y-143500D01*
X96326Y-142670D01*
X96559Y-141500D01*
Y-139500D01*
X96326Y-138329D01*
X95772Y-137500D01*
X96326Y-136671D01*
X96559Y-135500D01*
Y-133500D01*
X96326Y-132330D01*
X95772Y-131500D01*
X96326Y-130670D01*
X96559Y-129500D01*
Y-127500D01*
X96326Y-126329D01*
X96072Y-125950D01*
X96797Y-124866D01*
X97019Y-123750D01*
X88500D01*
X79726D01*
X79175Y-124422D01*
X63439D01*
X41084Y-102066D01*
X39761Y-101182D01*
X38200Y-100872D01*
X38200Y-100872D01*
X19517D01*
X19086Y-99602D01*
X20396Y-98596D01*
X21991Y-96518D01*
X22994Y-94097D01*
X23336Y-91500D01*
X22994Y-88903D01*
X21991Y-86482D01*
X20396Y-84404D01*
X18318Y-82809D01*
X15897Y-81806D01*
X13300Y-81464D01*
X10703Y-81806D01*
X8282Y-82809D01*
X6204Y-84404D01*
X4609Y-86482D01*
X3606Y-88903D01*
X3264Y-91500D01*
X3606Y-94097D01*
X4609Y-96518D01*
X6204Y-98596D01*
X7514Y-99602D01*
X7082Y-100872D01*
X2689D01*
X-2145Y-96038D01*
X-2033Y-95475D01*
Y-87525D01*
X-2497Y-85194D01*
X-3817Y-83217D01*
X-5794Y-81897D01*
X-8125Y-81433D01*
D02*
G37*
G36*
X221019Y-123750D02*
X212500D01*
X203981D01*
X204203Y-124866D01*
X204627Y-125500D01*
X204203Y-126134D01*
X203981Y-127250D01*
X212500D01*
X221019D01*
X220797Y-126134D01*
X220373Y-125500D01*
X220797Y-124866D01*
X221019Y-123750D01*
D02*
G37*
G36*
X248475Y-124350D02*
X244250D01*
Y-128325D01*
X244575D01*
X246067Y-128028D01*
X247333Y-127183D01*
X248178Y-125917D01*
X248475Y-124425D01*
Y-124350D01*
D02*
G37*
G36*
X241750D02*
X237525D01*
Y-124425D01*
X237822Y-125917D01*
X238667Y-127183D01*
X239933Y-128028D01*
X241425Y-128325D01*
X241750D01*
Y-124350D01*
D02*
G37*
G36*
X234225Y-124350D02*
X230000D01*
Y-128325D01*
X230325D01*
X231817Y-128028D01*
X233083Y-127183D01*
X233928Y-125918D01*
X234225Y-124425D01*
Y-124350D01*
D02*
G37*
G36*
X227500D02*
X223275D01*
Y-124425D01*
X223572Y-125918D01*
X224417Y-127183D01*
X225683Y-128028D01*
X227175Y-128325D01*
X227500D01*
Y-124350D01*
D02*
G37*
G36*
X304345Y-127098D02*
X299348D01*
Y-129760D01*
X301223D01*
X302461Y-129513D01*
X303512Y-128812D01*
X304214Y-127761D01*
X304345Y-127098D01*
D02*
G37*
G36*
X269148Y-127097D02*
X264150D01*
X264282Y-127761D01*
X264984Y-128812D01*
X266034Y-129513D01*
X267273Y-129760D01*
X269148D01*
Y-127097D01*
D02*
G37*
G36*
X317723Y-126698D02*
X313498D01*
Y-130673D01*
X313823D01*
X315315Y-130376D01*
X316580Y-129530D01*
X317426Y-128265D01*
X317723Y-126773D01*
Y-126698D01*
D02*
G37*
G36*
X310998D02*
X306773D01*
Y-126773D01*
X307070Y-128265D01*
X307915Y-129530D01*
X309180Y-130376D01*
X310673Y-130673D01*
X310998D01*
Y-126698D01*
D02*
G37*
G36*
X221019Y-129750D02*
X212500D01*
X203981D01*
X204203Y-130866D01*
X204627Y-131500D01*
X204203Y-132134D01*
X203981Y-133250D01*
X212500D01*
X221019D01*
X220797Y-132134D01*
X220373Y-131500D01*
X220797Y-130866D01*
X221019Y-129750D01*
D02*
G37*
G36*
X221019Y-135750D02*
X212500D01*
X203981D01*
X204203Y-136866D01*
X204627Y-137500D01*
X204203Y-138134D01*
X203981Y-139250D01*
X212500D01*
X221019D01*
X220797Y-138134D01*
X220373Y-137500D01*
X220797Y-136866D01*
X221019Y-135750D01*
D02*
G37*
G36*
X221019Y-141750D02*
X212500D01*
X203981D01*
X204203Y-142866D01*
X204627Y-143500D01*
X204203Y-144134D01*
X203981Y-145250D01*
X212500D01*
X221019D01*
X220797Y-144134D01*
X220373Y-143500D01*
X220797Y-142866D01*
X221019Y-141750D01*
D02*
G37*
G36*
X261725Y-143697D02*
X257497D01*
Y-147925D01*
X257698D01*
X259239Y-147618D01*
X260545Y-146745D01*
X261418Y-145439D01*
X261725Y-143898D01*
Y-143697D01*
D02*
G37*
G36*
X254997D02*
X250770D01*
Y-143898D01*
X251077Y-145439D01*
X251950Y-146745D01*
X253256Y-147618D01*
X254798Y-147925D01*
X254997D01*
Y-143697D01*
D02*
G37*
G36*
X177750Y-136433D02*
X173750D01*
Y-148250D01*
X185567D01*
Y-144250D01*
X185301Y-142227D01*
X184520Y-140342D01*
X183277Y-138723D01*
X181658Y-137480D01*
X179773Y-136699D01*
X177750Y-136433D01*
D02*
G37*
G36*
X171250D02*
X167250D01*
X165227Y-136699D01*
X163342Y-137480D01*
X161723Y-138723D01*
X160480Y-140342D01*
X159699Y-142227D01*
X159433Y-144250D01*
Y-148250D01*
X171250D01*
Y-136433D01*
D02*
G37*
G36*
X133750D02*
X129750D01*
Y-148250D01*
X141567D01*
Y-144250D01*
X141300Y-142227D01*
X140520Y-140342D01*
X139277Y-138723D01*
X137658Y-137480D01*
X135773Y-136699D01*
X133750Y-136433D01*
D02*
G37*
G36*
X127250D02*
X123250D01*
X121227Y-136699D01*
X119341Y-137480D01*
X117723Y-138723D01*
X116480Y-140342D01*
X115700Y-142227D01*
X115433Y-144250D01*
Y-148250D01*
X127250D01*
Y-136433D01*
D02*
G37*
G36*
X221019Y-147750D02*
X212500D01*
X203981D01*
X204203Y-148866D01*
X204627Y-149500D01*
X204203Y-150134D01*
X203981Y-151250D01*
X212500D01*
X221019D01*
X220797Y-150134D01*
X220373Y-149500D01*
X220797Y-148866D01*
X221019Y-147750D01*
D02*
G37*
G36*
X292825Y-151175D02*
X292500D01*
Y-155150D01*
X296725D01*
Y-155075D01*
X296428Y-153582D01*
X295583Y-152317D01*
X294317Y-151472D01*
X292825Y-151175D01*
D02*
G37*
G36*
X290000D02*
X289675D01*
X288183Y-151472D01*
X286917Y-152317D01*
X286072Y-153582D01*
X285775Y-155075D01*
Y-155150D01*
X290000D01*
Y-151175D01*
D02*
G37*
G36*
X97019Y-153750D02*
X88500D01*
X79981D01*
X80203Y-154866D01*
X80627Y-155500D01*
X80203Y-156134D01*
X79981Y-157250D01*
X88500D01*
X97019D01*
X96797Y-156134D01*
X96373Y-155500D01*
X96797Y-154866D01*
X97019Y-153750D01*
D02*
G37*
G36*
X354375Y-153800D02*
X347250D01*
Y-160400D01*
X359600D01*
Y-159025D01*
X359203Y-157025D01*
X358070Y-155330D01*
X356375Y-154197D01*
X354375Y-153800D01*
D02*
G37*
G36*
X344750D02*
X337625D01*
X335625Y-154197D01*
X333930Y-155330D01*
X332797Y-157025D01*
X332400Y-159025D01*
Y-160400D01*
X344750D01*
Y-153800D01*
D02*
G37*
G36*
X185567Y-150750D02*
X173750D01*
Y-162567D01*
X177750D01*
X179773Y-162300D01*
X181658Y-161520D01*
X183277Y-160277D01*
X184520Y-158658D01*
X185301Y-156773D01*
X185567Y-154750D01*
Y-150750D01*
D02*
G37*
G36*
X171250D02*
X159433D01*
Y-154750D01*
X159699Y-156773D01*
X160480Y-158658D01*
X161723Y-160277D01*
X163342Y-161520D01*
X165227Y-162300D01*
X167250Y-162567D01*
X171250D01*
Y-150750D01*
D02*
G37*
G36*
X141567D02*
X129750D01*
Y-162567D01*
X133750D01*
X135773Y-162300D01*
X137658Y-161520D01*
X139277Y-160277D01*
X140520Y-158658D01*
X141300Y-156773D01*
X141567Y-154750D01*
Y-150750D01*
D02*
G37*
G36*
X127250D02*
X115433D01*
Y-154750D01*
X115700Y-156773D01*
X116480Y-158658D01*
X117723Y-160277D01*
X119341Y-161520D01*
X121227Y-162300D01*
X123250Y-162567D01*
X127250D01*
Y-150750D01*
D02*
G37*
G36*
X97019Y-159750D02*
X88500D01*
X79981D01*
X80203Y-160866D01*
X80627Y-161500D01*
X80203Y-162134D01*
X79981Y-163250D01*
X88500D01*
X97019D01*
X96797Y-162134D01*
X96373Y-161500D01*
X96797Y-160866D01*
X97019Y-159750D01*
D02*
G37*
G36*
X221019Y-153750D02*
X212500D01*
X203981D01*
X204203Y-154866D01*
X204928Y-155950D01*
X204674Y-156329D01*
X204441Y-157500D01*
Y-159500D01*
X204674Y-160671D01*
X204928Y-161050D01*
X204203Y-162134D01*
X203981Y-163250D01*
X212500D01*
X221019D01*
X220797Y-162134D01*
X220072Y-161050D01*
X220326Y-160671D01*
X220559Y-159500D01*
Y-157500D01*
X220326Y-156329D01*
X220072Y-155950D01*
X220797Y-154866D01*
X221019Y-153750D01*
D02*
G37*
G36*
X248075Y-161575D02*
X247750D01*
Y-165550D01*
X251975D01*
Y-165475D01*
X251678Y-163983D01*
X250833Y-162717D01*
X249567Y-161872D01*
X248075Y-161575D01*
D02*
G37*
G36*
X245250D02*
X244925D01*
X243433Y-161872D01*
X242167Y-162717D01*
X241322Y-163983D01*
X241025Y-165475D01*
Y-165550D01*
X245250D01*
Y-161575D01*
D02*
G37*
G36*
X235200Y-161823D02*
X235000D01*
Y-166050D01*
X239227D01*
Y-165850D01*
X238921Y-164309D01*
X238048Y-163002D01*
X236741Y-162129D01*
X235200Y-161823D01*
D02*
G37*
G36*
X232500D02*
X232300D01*
X230759Y-162129D01*
X229452Y-163002D01*
X228579Y-164309D01*
X228273Y-165850D01*
Y-166050D01*
X232500D01*
Y-161823D01*
D02*
G37*
G36*
X97019Y-165750D02*
X88500D01*
X79981D01*
X80203Y-166866D01*
X80627Y-167500D01*
X80203Y-168134D01*
X79981Y-169250D01*
X88500D01*
X97019D01*
X96797Y-168134D01*
X96373Y-167500D01*
X96797Y-166866D01*
X97019Y-165750D01*
D02*
G37*
G36*
X221019Y-165750D02*
X212500D01*
X203981D01*
X204203Y-166866D01*
X204627Y-167500D01*
X204203Y-168134D01*
X203981Y-169250D01*
X212500D01*
X221019D01*
X220797Y-168134D01*
X220373Y-167500D01*
X220797Y-166866D01*
X221019Y-165750D01*
D02*
G37*
G36*
X359600Y-162900D02*
X347250D01*
Y-169500D01*
X354375D01*
X356375Y-169103D01*
X358070Y-167970D01*
X359203Y-166275D01*
X359600Y-164275D01*
Y-162900D01*
D02*
G37*
G36*
X221019Y-183750D02*
X212500D01*
X203981D01*
X204203Y-184866D01*
X204627Y-185500D01*
X204203Y-186134D01*
X203981Y-187250D01*
X212500D01*
X221019D01*
X220797Y-186134D01*
X220373Y-185500D01*
X220797Y-184866D01*
X221019Y-183750D01*
D02*
G37*
G36*
X354375Y-183300D02*
X347250D01*
Y-189900D01*
X359600D01*
Y-188525D01*
X359203Y-186525D01*
X358070Y-184830D01*
X356375Y-183697D01*
X354375Y-183300D01*
D02*
G37*
G36*
X221019Y-189750D02*
X213750D01*
Y-193069D01*
X217500D01*
X218866Y-192797D01*
X220023Y-192023D01*
X220797Y-190866D01*
X221019Y-189750D01*
D02*
G37*
G36*
X211250D02*
X203981D01*
X204203Y-190866D01*
X204977Y-192023D01*
X206134Y-192797D01*
X207500Y-193069D01*
X211250D01*
Y-189750D01*
D02*
G37*
G36*
X87250Y-189750D02*
X79981D01*
X80203Y-190866D01*
X80977Y-192023D01*
X82134Y-192797D01*
X83500Y-193069D01*
X87250D01*
Y-189750D01*
D02*
G37*
G36*
X159500Y-186912D02*
X157744Y-187261D01*
X156256Y-188256D01*
X155261Y-189744D01*
X154912Y-191500D01*
X155063Y-192258D01*
X154901Y-192599D01*
X154003Y-193441D01*
X152500D01*
X151329Y-193674D01*
X150500Y-194228D01*
X149670Y-193674D01*
X148500Y-193441D01*
X146500D01*
X145330Y-193674D01*
X144500Y-194228D01*
X143671Y-193674D01*
X142500Y-193441D01*
X140500D01*
X139330Y-193674D01*
X138500Y-194228D01*
X137670Y-193674D01*
X136500Y-193441D01*
X134500D01*
X133329Y-193674D01*
X132500Y-194228D01*
X131671Y-193674D01*
X130500Y-193441D01*
X128500D01*
X127330Y-193674D01*
X126500Y-194228D01*
X125671Y-193674D01*
X124500Y-193441D01*
X122500D01*
X121329Y-193674D01*
X120500Y-194228D01*
X119670Y-193674D01*
X118500Y-193441D01*
X116500D01*
X115330Y-193674D01*
X114500Y-194228D01*
X113671Y-193674D01*
X112500Y-193441D01*
X110500D01*
X109330Y-193674D01*
X108950Y-193928D01*
X107866Y-193203D01*
X106750Y-192981D01*
Y-201500D01*
X105500D01*
Y-202750D01*
X100932D01*
Y-206500D01*
X101203Y-207866D01*
X101977Y-209023D01*
X102950Y-209674D01*
X103309Y-210218D01*
X103617Y-210962D01*
X103261Y-211494D01*
X102912Y-213250D01*
X103261Y-215006D01*
X104256Y-216494D01*
X105744Y-217489D01*
X107500Y-217838D01*
X109256Y-217489D01*
X110744Y-216494D01*
X111111Y-215945D01*
X112639D01*
X113006Y-216494D01*
X114494Y-217489D01*
X116250Y-217838D01*
X118006Y-217489D01*
X118916Y-216880D01*
X120186Y-217559D01*
Y-237177D01*
X89225Y-268139D01*
X87925Y-267880D01*
X79675D01*
X77285Y-268355D01*
X75259Y-269709D01*
X73905Y-271735D01*
X73430Y-274125D01*
Y-282375D01*
X73905Y-284765D01*
X75259Y-286791D01*
X77285Y-288145D01*
X79675Y-288620D01*
X87925D01*
X90315Y-288145D01*
X92341Y-286791D01*
X93695Y-284765D01*
X94170Y-282375D01*
Y-274125D01*
X93911Y-272825D01*
X124916Y-241820D01*
X126186Y-242346D01*
Y-256577D01*
X113731Y-269032D01*
X111876Y-268264D01*
X109200Y-267912D01*
X106524Y-268264D01*
X104031Y-269297D01*
X101890Y-270940D01*
X100247Y-273081D01*
X99214Y-275574D01*
X98862Y-278250D01*
X99214Y-280926D01*
X100247Y-283419D01*
X101890Y-285560D01*
X104031Y-287203D01*
X106524Y-288236D01*
X109200Y-288588D01*
X111876Y-288236D01*
X114369Y-287203D01*
X116510Y-285560D01*
X118153Y-283419D01*
X119186Y-280926D01*
X119538Y-278250D01*
X119186Y-275574D01*
X118418Y-273719D01*
X130248Y-261888D01*
X131422Y-262374D01*
Y-268472D01*
X129431Y-269297D01*
X127290Y-270940D01*
X125647Y-273081D01*
X124614Y-275574D01*
X124262Y-278250D01*
X124614Y-280926D01*
X125647Y-283419D01*
X127290Y-285560D01*
X129431Y-287203D01*
X131924Y-288236D01*
X134600Y-288588D01*
X137276Y-288236D01*
X139769Y-287203D01*
X141910Y-285560D01*
X143553Y-283419D01*
X144586Y-280926D01*
X144938Y-278250D01*
X144586Y-275574D01*
X143553Y-273081D01*
X141910Y-270940D01*
X139769Y-269297D01*
X139578Y-269218D01*
Y-265255D01*
X140752Y-264769D01*
X150466Y-274483D01*
X150014Y-275574D01*
X149662Y-278250D01*
X150014Y-280926D01*
X151047Y-283419D01*
X152690Y-285560D01*
X154831Y-287203D01*
X157324Y-288236D01*
X160000Y-288588D01*
X162676Y-288236D01*
X165169Y-287203D01*
X167310Y-285560D01*
X168953Y-283419D01*
X169986Y-280926D01*
X170338Y-278250D01*
X169986Y-275574D01*
X168953Y-273081D01*
X167310Y-270940D01*
X165169Y-269297D01*
X162676Y-268264D01*
X160000Y-267912D01*
X157324Y-268264D01*
X156233Y-268716D01*
X145578Y-258061D01*
Y-220890D01*
X146698Y-220291D01*
X146994Y-220489D01*
X148750Y-220838D01*
X150506Y-220489D01*
X151994Y-219494D01*
X152989Y-218006D01*
X153338Y-216250D01*
X154368Y-214916D01*
X155256Y-214739D01*
X156744Y-213744D01*
X157739Y-212256D01*
X158036Y-210761D01*
X158161Y-210438D01*
X159196Y-209559D01*
X159804D01*
X160839Y-210438D01*
X160964Y-210761D01*
X161261Y-212256D01*
X162256Y-213744D01*
X163744Y-214739D01*
X165500Y-215088D01*
X166123Y-214964D01*
X167203Y-216044D01*
X167162Y-216250D01*
X167511Y-218006D01*
X168506Y-219494D01*
X169994Y-220489D01*
X171750Y-220838D01*
X173506Y-220489D01*
X174994Y-219494D01*
X175989Y-218006D01*
X176338Y-216250D01*
X175989Y-214494D01*
X175064Y-213109D01*
Y-210560D01*
X176334Y-209526D01*
X176500Y-209559D01*
X178500D01*
X179671Y-209326D01*
X180500Y-208772D01*
X181329Y-209326D01*
X182500Y-209559D01*
X184500D01*
X185671Y-209326D01*
X186500Y-208772D01*
X187329Y-209326D01*
X188500Y-209559D01*
X190500D01*
X191670Y-209326D01*
X192500Y-208772D01*
X193329Y-209326D01*
X194500Y-209559D01*
X196500D01*
X197670Y-209326D01*
X198663Y-208663D01*
X199326Y-207670D01*
X199559Y-206500D01*
Y-196500D01*
X199326Y-195329D01*
X198663Y-194337D01*
X197670Y-193674D01*
X196500Y-193441D01*
X194500D01*
X193329Y-193674D01*
X192500Y-194228D01*
X191670Y-193674D01*
X190500Y-193441D01*
X188500D01*
X187329Y-193674D01*
X186500Y-194228D01*
X185671Y-193674D01*
X184500Y-193441D01*
X182500D01*
X181329Y-193674D01*
X180500Y-194228D01*
X179671Y-193674D01*
X178500Y-193441D01*
X176500D01*
X175329Y-193674D01*
X174500Y-194228D01*
X173671Y-193674D01*
X172500Y-193441D01*
X170500D01*
X169329Y-193674D01*
X168500Y-194228D01*
X167670Y-193674D01*
X166500Y-193441D01*
X164997D01*
X164100Y-192599D01*
X163937Y-192258D01*
X164088Y-191500D01*
X163739Y-189744D01*
X162744Y-188256D01*
X161256Y-187261D01*
X159500Y-186912D01*
D02*
G37*
G36*
X293250Y-191780D02*
X292500D01*
Y-195200D01*
X296830D01*
X296594Y-194015D01*
X295809Y-192841D01*
X294635Y-192056D01*
X293250Y-191780D01*
D02*
G37*
G36*
X290000D02*
X289250D01*
X287865Y-192056D01*
X286691Y-192841D01*
X285906Y-194015D01*
X285670Y-195200D01*
X290000D01*
Y-191780D01*
D02*
G37*
G36*
X248500Y-193030D02*
X247750D01*
Y-196450D01*
X252080D01*
X251844Y-195265D01*
X251059Y-194091D01*
X249885Y-193306D01*
X248500Y-193030D01*
D02*
G37*
G36*
X245250D02*
X244500D01*
X243115Y-193306D01*
X241941Y-194091D01*
X241156Y-195265D01*
X240920Y-196450D01*
X245250D01*
Y-193030D01*
D02*
G37*
G36*
X359600Y-192400D02*
X347250D01*
Y-199000D01*
X354375D01*
X356375Y-198603D01*
X358070Y-197470D01*
X359203Y-195775D01*
X359600Y-193775D01*
Y-192400D01*
D02*
G37*
G36*
X344750D02*
X332400D01*
Y-193775D01*
X332797Y-195775D01*
X333930Y-197470D01*
X335625Y-198603D01*
X337625Y-199000D01*
X344750D01*
Y-192400D01*
D02*
G37*
G36*
X104250Y-192981D02*
X103134Y-193203D01*
X101977Y-193977D01*
X101203Y-195134D01*
X100932Y-196500D01*
Y-200250D01*
X104250D01*
Y-192981D01*
D02*
G37*
G36*
X296830Y-197700D02*
X292500D01*
Y-201119D01*
X293250D01*
X294635Y-200844D01*
X295809Y-200059D01*
X296594Y-198885D01*
X296830Y-197700D01*
D02*
G37*
G36*
X290000D02*
X285670D01*
X285906Y-198885D01*
X286691Y-200059D01*
X287865Y-200844D01*
X289250Y-201119D01*
X290000D01*
Y-197700D01*
D02*
G37*
G36*
X252080Y-198950D02*
X247750D01*
Y-202369D01*
X248500D01*
X249885Y-202094D01*
X251059Y-201309D01*
X251844Y-200135D01*
X252080Y-198950D01*
D02*
G37*
G36*
X245250D02*
X240920D01*
X241156Y-200135D01*
X241941Y-201309D01*
X243115Y-202094D01*
X244500Y-202369D01*
X245250D01*
Y-198950D01*
D02*
G37*
G36*
X-12100Y-208464D02*
X-14698Y-208806D01*
X-17118Y-209809D01*
X-19196Y-211404D01*
X-20791Y-213482D01*
X-21794Y-215903D01*
X-22136Y-218500D01*
X-21794Y-221098D01*
X-20791Y-223518D01*
X-19196Y-225596D01*
X-17118Y-227191D01*
X-14698Y-228194D01*
X-12100Y-228536D01*
X-9503Y-228194D01*
X-7082Y-227191D01*
X-5004Y-225596D01*
X-3409Y-223518D01*
X-2406Y-221098D01*
X-2064Y-218500D01*
X-2406Y-215903D01*
X-3409Y-213482D01*
X-5004Y-211404D01*
X-7082Y-209809D01*
X-9503Y-208806D01*
X-12100Y-208464D01*
D02*
G37*
G36*
X-4250Y-239167D02*
X-4750D01*
Y-258000D01*
X83D01*
Y-243500D01*
X-247Y-241842D01*
X-1186Y-240436D01*
X-2592Y-239497D01*
X-4250Y-239167D01*
D02*
G37*
G36*
X-7250D02*
X-7750D01*
X-9408Y-239497D01*
X-10814Y-240436D01*
X-11753Y-241842D01*
X-12083Y-243500D01*
Y-258000D01*
X-7250D01*
Y-239167D01*
D02*
G37*
G36*
X83Y-260500D02*
X-4750D01*
Y-279333D01*
X-4250D01*
X-2592Y-279003D01*
X-1186Y-278064D01*
X-247Y-276658D01*
X83Y-275000D01*
Y-260500D01*
D02*
G37*
G36*
X-7250D02*
X-12083D01*
Y-275000D01*
X-11753Y-276658D01*
X-10814Y-278064D01*
X-9408Y-279003D01*
X-7750Y-279333D01*
X-7250D01*
Y-260500D01*
D02*
G37*
G36*
X210800Y-267912D02*
X208124Y-268264D01*
X205631Y-269297D01*
X203490Y-270940D01*
X201847Y-273081D01*
X200814Y-275574D01*
X200462Y-278250D01*
X200814Y-280926D01*
X201847Y-283419D01*
X203490Y-285560D01*
X205631Y-287203D01*
X208124Y-288236D01*
X210800Y-288588D01*
X213476Y-288236D01*
X215969Y-287203D01*
X218110Y-285560D01*
X219753Y-283419D01*
X220786Y-280926D01*
X221138Y-278250D01*
X220786Y-275574D01*
X219753Y-273081D01*
X218110Y-270940D01*
X215969Y-269297D01*
X213476Y-268264D01*
X210800Y-267912D01*
D02*
G37*
G36*
X185400D02*
X182724Y-268264D01*
X180231Y-269297D01*
X178090Y-270940D01*
X176447Y-273081D01*
X175414Y-275574D01*
X175062Y-278250D01*
X175414Y-280926D01*
X176447Y-283419D01*
X178090Y-285560D01*
X180231Y-287203D01*
X182724Y-288236D01*
X185400Y-288588D01*
X188076Y-288236D01*
X190569Y-287203D01*
X192710Y-285560D01*
X194353Y-283419D01*
X195386Y-280926D01*
X195738Y-278250D01*
X195386Y-275574D01*
X194353Y-273081D01*
X192710Y-270940D01*
X190569Y-269297D01*
X188076Y-268264D01*
X185400Y-267912D01*
D02*
G37*
G36*
X-4250Y-325167D02*
X-4750D01*
Y-343999D01*
X83D01*
Y-329500D01*
X-247Y-327842D01*
X-1186Y-326436D01*
X-2592Y-325497D01*
X-4250Y-325167D01*
D02*
G37*
G36*
X-7250D02*
X-7750D01*
X-9408Y-325497D01*
X-10814Y-326436D01*
X-11753Y-327842D01*
X-12083Y-329500D01*
Y-343999D01*
X-7250D01*
Y-325167D01*
D02*
G37*
G36*
X83Y-346499D02*
X-4750D01*
Y-365333D01*
X-4250D01*
X-2592Y-365003D01*
X-1186Y-364064D01*
X-247Y-362658D01*
X83Y-361000D01*
Y-346499D01*
D02*
G37*
G36*
X-7250D02*
X-12083D01*
Y-361000D01*
X-11753Y-362658D01*
X-10814Y-364064D01*
X-9408Y-365003D01*
X-7750Y-365333D01*
X-7250D01*
Y-346499D01*
D02*
G37*
%LPD*%
G36*
X52581Y-125098D02*
X52095Y-126272D01*
X19517D01*
X19086Y-125002D01*
X20396Y-123996D01*
X21991Y-121918D01*
X22994Y-119497D01*
X23336Y-116900D01*
X22994Y-114303D01*
X21991Y-111882D01*
X20776Y-110298D01*
X21400Y-109028D01*
X36511D01*
X52581Y-125098D01*
D02*
G37*
D10*
X304923Y-185334D02*
X312411Y-202151D01*
X304792Y-184954D02*
X304923Y-185334D01*
X296738Y-54312D02*
X312238D01*
X296738Y-54662D02*
Y-54312D01*
X212500Y-113400D02*
X228750D01*
X228750Y-113400D02*
X243000D01*
X228750Y-113400D02*
X228750Y-113400D01*
X243076Y-113324D02*
X256171D01*
X256248Y-113248D01*
X243000Y-113400D02*
X243076Y-113324D01*
X296748Y-115848D02*
Y-103835D01*
X296738Y-103825D02*
Y-85162D01*
Y-103825D02*
X296748Y-103835D01*
X298148Y-115798D02*
X312198D01*
X256248Y-133248D02*
Y-122448D01*
D11*
X182000Y-74750D02*
G03*
X190750Y-66000I0J8750D01*
G01*
X182000Y-74750D02*
G03*
X171500Y-85250I0J-10500D01*
G01*
X188500Y-80500D02*
G03*
X197250Y-71750I0J8750D01*
G01*
X188500Y-80500D02*
G03*
X177500Y-91500I0J-11000D01*
G01*
X171500Y-97500D02*
Y-85250D01*
X190750Y-66000D02*
Y-21000D01*
X197250Y-71750D02*
Y-21000D01*
X197250Y-21000D02*
X197250Y-21000D01*
X177500Y-97500D02*
Y-91500D01*
D12*
X117445Y-207753D02*
G03*
X117500Y-207232I-2445J522D01*
G01*
X111052Y-208144D02*
G03*
X111500Y-206716I-2052J1428D01*
G01*
X40763Y-345250D02*
X40763Y-345250D01*
Y-259250D02*
X40763Y-259250D01*
X40763Y-345250D02*
Y-259250D01*
X40763Y-259250D02*
Y-245521D01*
X42975Y-243309D01*
X45702D01*
X97750Y-191260D01*
Y-179740D01*
X95260Y-177250D02*
X97750Y-179740D01*
X89250Y-177250D02*
X95260D01*
X88500Y-176500D02*
X89250Y-177250D01*
X83800Y-278250D02*
X123500Y-238550D01*
Y-201500D01*
X109200Y-278250D02*
X129500Y-257950D01*
Y-201500D01*
X117443Y-207763D02*
X117445Y-207753D01*
X107500Y-213250D02*
X111052Y-208144D01*
X171500Y-201500D02*
X171750Y-206250D01*
Y-216250D02*
Y-206250D01*
X111500D02*
X111500Y-201500D01*
X111500Y-206716D02*
Y-206250D01*
X117500Y-207232D02*
Y-206250D01*
X116250Y-213250D02*
X117443Y-207763D01*
X117500Y-206250D02*
X117500Y-201500D01*
X117500Y-104424D02*
Y-97500D01*
X115474Y-106450D02*
X117500Y-104424D01*
X115474Y-107127D02*
Y-106450D01*
X125250Y-107127D02*
Y-106450D01*
X123500Y-97500D02*
X124250Y-98250D01*
Y-105450D02*
Y-98250D01*
Y-105450D02*
X125250Y-106450D01*
X258956Y-115848D02*
X270398D01*
X256248Y-113248D02*
X256356D01*
X258956Y-115848D01*
X257848Y-120848D02*
X270398D01*
X256248Y-122448D02*
X257848Y-120848D01*
D14*
X159500Y-201500D02*
Y-191500D01*
X147500Y-214188D02*
X148750Y-215438D01*
Y-216250D02*
Y-215438D01*
X147500Y-214188D02*
Y-201500D01*
X189500Y-97500D02*
X189625Y-97625D01*
Y-107875D02*
Y-97625D01*
Y-107875D02*
X189750Y-108000D01*
X153500Y-210500D02*
Y-201500D01*
X165500Y-210500D02*
Y-201500D01*
X180250Y-108000D02*
Y-107188D01*
X183500Y-103938D01*
Y-97500D01*
X312198Y-115798D02*
X312248Y-115748D01*
X298098Y-115848D02*
X298148Y-115798D01*
D15*
X312750Y-203750D02*
D03*
Y-202000D02*
D03*
D16*
Y-207000D02*
D03*
Y-204500D02*
D03*
D17*
X212500Y-188500D02*
D03*
X88500Y-188500D02*
D03*
X88500Y-110500D02*
D03*
X212500Y-158500D02*
D03*
X212500Y-122500D02*
D03*
X212500Y-128500D02*
D03*
Y-134500D02*
D03*
X212500Y-140500D02*
D03*
X212500Y-146500D02*
D03*
Y-152500D02*
D03*
Y-164500D02*
D03*
Y-170500D02*
D03*
Y-176500D02*
D03*
Y-182500D02*
D03*
X88500Y-182500D02*
D03*
Y-116500D02*
D03*
Y-122500D02*
D03*
Y-128500D02*
D03*
X88500Y-134500D02*
D03*
X88500Y-146500D02*
D03*
X88500Y-152500D02*
D03*
Y-158500D02*
D03*
X88500Y-164500D02*
D03*
X88500Y-170500D02*
D03*
X88500Y-140500D02*
D03*
X212500Y-116500D02*
D03*
Y-110500D02*
D03*
X88500Y-176500D02*
D03*
D18*
X105500Y-97500D02*
D03*
X111500D02*
D03*
X195500D02*
D03*
X189500D02*
D03*
X195500Y-201500D02*
D03*
X189500D02*
D03*
X105500D02*
D03*
X111500D02*
D03*
X141500D02*
D03*
X177500D02*
D03*
X171500D02*
D03*
X165500D02*
D03*
X159500D02*
D03*
X153500D02*
D03*
X147500D02*
D03*
X135500D02*
D03*
X129500D02*
D03*
X123500D02*
D03*
X117500D02*
D03*
X183500D02*
D03*
X117500Y-97500D02*
D03*
X183500D02*
D03*
X177500D02*
D03*
X171500D02*
D03*
X165500D02*
D03*
X153500D02*
D03*
X147500D02*
D03*
X141500D02*
D03*
X135500D02*
D03*
X129500D02*
D03*
X123500D02*
D03*
X159500D02*
D03*
D19*
X128500Y-149500D02*
D03*
X172500D02*
D03*
D20*
X-6000Y-259250D02*
D03*
X-6000Y-345250D02*
D03*
X40763Y-259250D02*
D03*
X40763Y-345250D02*
D03*
D21*
X256248Y-113248D02*
D03*
Y-122448D02*
D03*
Y-133248D02*
D03*
Y-142448D02*
D03*
X262238Y-63762D02*
D03*
Y-54562D02*
D03*
X262238Y-78562D02*
D03*
X262238Y-87762D02*
D03*
X233750Y-167300D02*
D03*
Y-176500D02*
D03*
D22*
X246500Y-166800D02*
D03*
Y-176500D02*
D03*
X312248Y-125448D02*
D03*
X312248Y-115748D02*
D03*
X243000Y-113400D02*
D03*
Y-123100D02*
D03*
X291250Y-156400D02*
D03*
Y-166100D02*
D03*
X312238Y-64012D02*
D03*
Y-54312D02*
D03*
X228750Y-113400D02*
D03*
X228750Y-123100D02*
D03*
D23*
X304792Y-184954D02*
D03*
X301050Y-176550D02*
D03*
D24*
X284248Y-118348D02*
D03*
D25*
X298098Y-110848D02*
D03*
Y-115848D02*
D03*
Y-120848D02*
D03*
X298098Y-125848D02*
D03*
X270398D02*
D03*
X270398Y-120848D02*
D03*
Y-115848D02*
D03*
Y-110848D02*
D03*
D26*
X162750Y6000D02*
D03*
X218750Y6000D02*
D03*
D27*
X203750Y-21000D02*
D03*
X184250Y-21000D02*
D03*
X177750Y-21000D02*
D03*
X190750D02*
D03*
X197250Y-21000D02*
D03*
D28*
X200750Y6000D02*
D03*
X180750Y6000D02*
D03*
D29*
X310250Y-176550D02*
D03*
D30*
X277738Y-57162D02*
D03*
X296738D02*
D03*
Y-85162D02*
D03*
X287238Y-85162D02*
D03*
X277738D02*
D03*
D31*
X247488Y-63912D02*
D03*
Y-78912D02*
D03*
D32*
X291250Y-196450D02*
D03*
Y-185350D02*
D03*
X246500Y-197700D02*
D03*
Y-186600D02*
D03*
D33*
X270200Y-176400D02*
D03*
X261000D02*
D03*
D34*
X291350D02*
D03*
X281650D02*
D03*
D35*
X346000Y-191150D02*
D03*
Y-161650D02*
D03*
D36*
X331000Y-176400D02*
D03*
D67*
X203750Y-29500D02*
G03*
X212000Y-37750I8250J0D01*
G01*
X296738Y-57162D02*
G03*
X277326Y-37750I-19412J0D01*
G01*
X203750Y-29500D02*
X203750Y-29500D01*
X203750Y-29500D02*
Y-21000D01*
X212000Y-37750D02*
X277326D01*
X41500Y-182500D02*
X88500D01*
X34485Y-146500D02*
X88500D01*
X-12450Y-193100D02*
X-500Y-205050D01*
X18950D01*
X41500Y-182500D01*
X-12450Y-116900D02*
X1000Y-130350D01*
X55115D01*
X59265Y-134500D01*
X88500D01*
X88500Y-134500D01*
X-12450Y-167700D02*
X-500Y-179650D01*
X18250D01*
X26750Y-171150D01*
Y-154235D01*
X34485Y-146500D01*
X-12450Y-142300D02*
X-500Y-154250D01*
X18250D01*
X32000Y-140500D01*
X83914D01*
X83914Y-140500D01*
X86015D01*
X86015Y-140500D01*
X88500D01*
Y-140500D01*
X-12450Y-91500D02*
X1000Y-104950D01*
X38200D01*
X61750Y-128500D01*
X88500D01*
X296738Y-57162D02*
Y-54662D01*
X212500Y-176500D02*
X233750D01*
X141500Y-206086D02*
X141500Y-206086D01*
X141500Y-259750D02*
Y-206086D01*
Y-259750D02*
X160000Y-278250D01*
X141500Y-206086D02*
Y-201500D01*
X134600Y-278250D02*
X135500Y-277350D01*
Y-201500D01*
X165500Y-97500D02*
Y-83500D01*
X93885Y-76535D02*
X158535D01*
X77600Y-60250D02*
X93885Y-76535D01*
X158535D02*
X165500Y-83500D01*
X74485Y-82535D02*
X151606D01*
X165500Y-97500D02*
X165500Y-97500D01*
X151606Y-82535D02*
X159500Y-90429D01*
Y-97500D02*
Y-90429D01*
Y-97500D02*
X159500Y-97500D01*
X52200Y-60250D02*
X74485Y-82535D01*
D68*
X296738Y-80662D02*
G03*
X287238Y-71162I-9500J0D01*
G01*
X262238Y-63762D02*
G03*
X280103Y-71162I17865J17865D01*
G01*
X275138Y-87762D02*
G03*
X277738Y-85162I0J2600D01*
G01*
Y-57162D02*
G03*
X275138Y-54562I-2600J0D01*
G01*
X247838Y-78562D02*
G03*
X247488Y-78912I0J-350D01*
G01*
X300900Y-176400D02*
X301050Y-176550D01*
X300900Y-176400D02*
X300900Y-176400D01*
X291350Y-176400D02*
X300900D01*
X310250Y-176550D02*
X328750D01*
X331000Y-176400D01*
X310250Y-176550D02*
X310250Y-176550D01*
X233750Y-176500D02*
Y-176500D01*
X291350Y-185350D02*
Y-176400D01*
X291250D02*
Y-167000D01*
X296738Y-80662D02*
Y-80662D01*
Y-85162D02*
Y-80662D01*
X280103Y-71162D02*
X287238Y-71162D01*
X262238Y-87762D02*
X275138D01*
X262238Y-54562D02*
X275138D01*
X247838Y-78562D02*
X262238Y-78562D01*
X233750Y-176500D02*
X246500D01*
Y-186600D02*
Y-176500D01*
X291250Y-185350D02*
X291350D01*
X291250Y-176400D02*
X291350D01*
X270200D02*
X281650D01*
X246500Y-176500D02*
Y-176500D01*
Y-176400D02*
X261000D01*
D69*
X299738Y-85150D02*
X334750D01*
D70*
X212500Y-113000D02*
D03*
D71*
X270398Y-113348D02*
D03*
D72*
X298098Y-115848D02*
D03*
D73*
X340000Y0D02*
D03*
X247000Y-350000D02*
D03*
X0Y0D02*
D03*
X90000Y-350000D02*
D03*
D74*
X-12100Y-91500D02*
D03*
D75*
X13300D02*
D03*
X-12100Y-116900D02*
D03*
X13300D02*
D03*
X-12100Y-142300D02*
D03*
X13300D02*
D03*
X-12100Y-167700D02*
D03*
X13300D02*
D03*
X-12100Y-193100D02*
D03*
X13300D02*
D03*
X-12100Y-218500D02*
D03*
X13300D02*
D03*
D76*
X52200Y-59000D02*
D03*
X13000Y-59000D02*
D03*
X83800Y-278250D02*
D03*
D77*
X77600Y-59000D02*
D03*
X103000D02*
D03*
X128400D02*
D03*
X-12400Y-59000D02*
D03*
X185400Y-278250D02*
D03*
X210800D02*
D03*
X109200D02*
D03*
X134600D02*
D03*
X160000D02*
D03*
X334750Y-59750D02*
D03*
D78*
X215750Y-21000D02*
D03*
X165750Y-21000D02*
D03*
D79*
X225750Y6000D02*
D03*
X155750D02*
D03*
D80*
X334750Y-85150D02*
D03*
D81*
X340003Y-40246D02*
D03*
X350003Y-60246D02*
D03*
Y-100246D02*
D03*
X340003Y-120246D02*
D03*
X350003Y-140246D02*
D03*
X320003Y-40246D02*
D03*
X330003Y-100246D02*
D03*
Y-140246D02*
D03*
X320003Y-160246D02*
D03*
X300003Y-246D02*
D03*
X310003Y-20246D02*
D03*
X300003Y-40246D02*
D03*
X310003Y-100246D02*
D03*
Y-140246D02*
D03*
X280003Y-246D02*
D03*
X290003Y-20246D02*
D03*
Y-140246D02*
D03*
X280003Y-160246D02*
D03*
Y-200246D02*
D03*
X260003Y-246D02*
D03*
X270003Y-20246D02*
D03*
Y-100246D02*
D03*
Y-140246D02*
D03*
X260003Y-160246D02*
D03*
Y-200246D02*
D03*
X270003Y-220246D02*
D03*
X260003Y-240246D02*
D03*
X270003Y-260246D02*
D03*
X260003Y-280246D02*
D03*
X270003Y-300246D02*
D03*
X260003Y-320246D02*
D03*
X240003Y-246D02*
D03*
X250003Y-20246D02*
D03*
Y-100246D02*
D03*
Y-220246D02*
D03*
X240003Y-240246D02*
D03*
X250003Y-260246D02*
D03*
X240003Y-280246D02*
D03*
X250003Y-300246D02*
D03*
X240003Y-320246D02*
D03*
X230003Y-20246D02*
D03*
Y-60246D02*
D03*
X220003Y-80246D02*
D03*
X230003Y-100246D02*
D03*
Y-140246D02*
D03*
X220003Y-200246D02*
D03*
X230003Y-220246D02*
D03*
X220003Y-240246D02*
D03*
X230003Y-260246D02*
D03*
Y-300246D02*
D03*
X220003Y-320246D02*
D03*
Y-360246D02*
D03*
X210003Y-60246D02*
D03*
X200003Y-120246D02*
D03*
Y-160246D02*
D03*
X210003Y-220246D02*
D03*
X200003Y-240246D02*
D03*
X210003Y-260246D02*
D03*
Y-300246D02*
D03*
X200003Y-320246D02*
D03*
X210003Y-340246D02*
D03*
X200003Y-360246D02*
D03*
X180003Y-40246D02*
D03*
Y-120246D02*
D03*
X190003Y-140246D02*
D03*
Y-300246D02*
D03*
X180003Y-320246D02*
D03*
X190003Y-340246D02*
D03*
X180003Y-360246D02*
D03*
X160003Y-40246D02*
D03*
X170003Y-60246D02*
D03*
X160003Y-120246D02*
D03*
X170003Y-180246D02*
D03*
X160003Y-240246D02*
D03*
X170003Y-260246D02*
D03*
Y-300246D02*
D03*
X160003Y-320246D02*
D03*
X170003Y-340246D02*
D03*
X160003Y-360246D02*
D03*
X140003Y-246D02*
D03*
X150003Y-20246D02*
D03*
X140003Y-40246D02*
D03*
X150003Y-60246D02*
D03*
Y-300246D02*
D03*
X140003Y-320246D02*
D03*
X150003Y-340246D02*
D03*
X140003Y-360246D02*
D03*
X120003Y-246D02*
D03*
X130003Y-20246D02*
D03*
X120003Y-40246D02*
D03*
X130003Y-300246D02*
D03*
X120003Y-320246D02*
D03*
X130003Y-340246D02*
D03*
X120003Y-360246D02*
D03*
X100003Y-246D02*
D03*
X110003Y-20246D02*
D03*
X100003Y-40246D02*
D03*
X110003Y-140246D02*
D03*
X100003Y-240246D02*
D03*
X110003Y-300246D02*
D03*
X100003Y-320246D02*
D03*
X80003Y-246D02*
D03*
X90003Y-20246D02*
D03*
X80003Y-40246D02*
D03*
Y-240246D02*
D03*
X90003Y-260246D02*
D03*
Y-300246D02*
D03*
X80003Y-320246D02*
D03*
X60003Y-246D02*
D03*
X70003Y-20246D02*
D03*
X60003Y-40246D02*
D03*
Y-80246D02*
D03*
Y-240246D02*
D03*
X70003Y-260246D02*
D03*
X60003Y-280246D02*
D03*
X70003Y-300246D02*
D03*
X60003Y-320246D02*
D03*
Y-360246D02*
D03*
X40003Y-246D02*
D03*
X50003Y-20246D02*
D03*
X40003Y-40246D02*
D03*
X50003Y-300246D02*
D03*
X30003Y-20246D02*
D03*
X20003Y-40246D02*
D03*
X30003Y-60246D02*
D03*
X20003Y-240246D02*
D03*
X30003Y-260246D02*
D03*
X20003Y-280246D02*
D03*
X30003Y-300246D02*
D03*
X20003Y-320246D02*
D03*
X30003Y-340246D02*
D03*
X20003Y-360246D02*
D03*
X3Y-40246D02*
D03*
X10003Y-260246D02*
D03*
Y-300246D02*
D03*
X3Y-320246D02*
D03*
X10003Y-340246D02*
D03*
X-19997Y-40246D02*
D03*
Y-240246D02*
D03*
Y-280246D02*
D03*
X-9997Y-300246D02*
D03*
X-19997Y-320246D02*
D03*
Y-360246D02*
D03*
D82*
X116250Y-213250D02*
D03*
X107500D02*
D03*
X171750Y-216250D02*
D03*
X159500Y-191500D02*
D03*
X125250Y-107127D02*
D03*
X115474D02*
D03*
X148750Y-216250D02*
D03*
X153500Y-210500D02*
D03*
X165500D02*
D03*
X189750Y-108000D02*
D03*
X180250D02*
D03*
D83*
X212500Y-113400D02*
D03*
M02*
