M48
;Layer_Color=9474304
;FILE_FORMAT=4:4
METRIC,LZ
;TYPE=PLATED
T1F00S00C0.3000
T2F00S00C0.4000
T4F00S00C0.8500
T5F00S00C1.0000
T6F00S00C1.1000
T7F00S00C2.4000
%
T01
X0014875Y-0021625
X001535Y-002105
X001655
X0017175Y-0021625
X001595Y-001915
X0018025Y-00108
X0018975
X002125Y-001134
X0012525Y-00107127
X00115474
X0011625Y-0021325
X001075
T02
X00140003Y-00360246
X00160003
X00180003
X00200003
X00220003
X00210003Y-00340246
X00190003
X00170003
X00150003
X00160003Y-00320246
X00180003
X00200003
X00220003
X00240003
X00260003
X00270003Y-00300246
X00250003
X00230003
X00210003
X00190003
X00170003
X00150003
X00140003Y-00320246
X00170003Y-00260246
X00160003Y-00240246
X00200003
X00220003
X00240003
X00260003
X00270003Y-00220246
X00250003
X00230003
X00210003
X00220003Y-00200246
X00260003
X00280003
Y-00160246
X00260003
X00270003Y-00140246
X00290003
X00310003
X00330003
X00350003
X00340003Y-00120246
X00350003Y-00100246
X00330003
X00310003
X00270003
X00250003
X00230003
X00220003Y-00080246
X00230003Y-00060246
X00210003
X00170003
X00150003
X00160003Y-00040246
X00180003
X00140003
X00160003Y-00120246
X00180003
X00200003
X00190003Y-00140246
X00200003Y-00160246
X00230003Y-00140246
X00170003Y-00180246
X00210003Y-00260246
X00230003
X00250003
X00270003
X00260003Y-00280246
X00240003
X00320003Y-00160246
Y-00040246
X00340003
X00350003Y-00060246
X00300003Y-00040246
X00120003
X00100003
X00080003
X00060003
X00040003
X00020003
X00000003
X-00019997
X00030003Y-00060246
X00060003Y-00080246
X00110003Y-00140246
X00100003Y-00240246
X00080003
X00060003
X00070003Y-00260246
X00090003
Y-00300246
X00110003
X00130003
X00120003Y-00320246
X00100003
X00080003
X00060003
X00070003Y-00300246
X00050003
X00030003
X00010003
X-00009997
X00000003Y-00320246
X00020003
X00030003Y-00340246
X00010003
X00020003Y-00360246
X00060003
X00120003
X00130003Y-00340246
X00060003Y-00280246
X00020003
X00030003Y-00260246
X00010003
X00020003Y-00240246
X-00019997
Y-00280246
Y-00320246
Y-00360246
X00030003Y-00020246
X00050003
X00070003
X00090003
X00110003
X00130003
X00120003Y-00000246
X00100003
X00080003
X00060003
X00040003
X00140003
X00150003Y-00020246
X00230003
X00250003
X00270003
X00290003
X00310003
X00300003Y-00000246
X00280003
X00260003
X00240003
T04
X0016575Y-00021
X0021575Y-00021
T05
X-000121Y-002185
X000133
X000133Y-001931
X-000121
X-000121Y-001677
Y-001423
X000133
Y-001677
Y-001169
X-000121
X-000121Y-000915
X000133
T06
X001346Y-0027825
X0016
X001854
X002108
X0033475Y-0008515
X0033475Y-0005975
X001284Y-00059
X00103
X000776
X000522
X00013Y-00059
X-000124
X000838Y-0027825
X001092
T07
X00247Y-0035
X0009
X0Y0
X0034
M30
